<?xml version="1.0" encoding="UTF-8" ?>
<!DOCTYPE svg PUBLIC "-//W3C//DTD SVG 1.1//EN" "http://www.w3.org/Graphics/SVG/1.1/DTD/svg11.dtd">
<svg width="980pt" height="980pt" viewBox="0 0 980 980" version="1.1" xmlns="http://www.w3.org/2000/svg">
<g id="#ffffffff">
</g>
<g id="#000000ff">
<path fill="#000000" opacity="1.00" d=" M 33.28 0.00 L 36.73 0.00 C 45.80 0.55 54.32 4.92 60.51 11.49 C 203.68 154.65 346.86 297.80 490.00 440.99 C 631.50 299.50 772.99 158.00 914.49 16.51 C 919.67 11.30 924.78 5.64 931.74 2.82 C 935.38 1.17 939.34 0.36 943.31 0.00 L 946.72 0.00 C 964.27 0.95 979.63 16.57 980.00 34.19 L 980.00 35.80 C 979.76 44.95 975.53 53.73 968.97 60.03 C 825.65 203.35 682.33 346.66 539.02 489.98 C 680.67 631.65 822.34 773.30 964.00 914.96 C 967.97 919.00 972.31 922.83 975.18 927.80 C 978.15 932.73 979.78 938.43 980.00 944.18 L 980.00 945.85 C 979.72 955.18 975.36 964.18 968.48 970.44 C 962.64 975.78 955.00 978.84 947.24 980.00 L 944.17 980.00 C 935.40 979.37 926.84 975.59 920.52 969.48 C 777.00 826.00 633.54 682.45 490.00 539.00 C 347.66 681.34 205.32 823.67 62.99 966.02 C 56.41 973.59 47.22 978.74 37.24 980.00 L 34.20 980.00 C 23.54 979.23 13.12 973.86 6.80 965.16 C 2.65 959.60 0.24 952.78 0.00 945.85 L 0.00 944.18 C 0.23 935.06 4.46 926.33 10.97 920.03 C 154.31 776.67 297.67 633.34 441.01 489.98 C 297.84 346.81 154.68 203.63 11.50 60.48 C 4.72 54.12 0.25 45.23 0.00 35.87 L 0.00 34.18 C 0.38 16.57 15.74 0.97 33.28 0.00 Z" />
</g>
</svg>
