<?xml version="1.0" encoding="UTF-8" ?>
<!DOCTYPE svg PUBLIC "-//W3C//DTD SVG 1.1//EN" "http://www.w3.org/Graphics/SVG/1.1/DTD/svg11.dtd">
<svg width="50pt" height="55pt" viewBox="0 0 50 55" version="1.1" xmlns="http://www.w3.org/2000/svg">
<g id="#000000fe">
<path fill="#000000" opacity="1.00" d=" M 23.70 0.00 L 26.23 0.00 C 27.40 6.24 26.45 12.66 26.74 18.98 C 26.41 22.93 27.55 27.15 26.11 30.92 C 22.83 31.81 23.27 28.05 23.28 26.01 C 23.62 17.34 22.84 8.64 23.70 0.00 Z" />
<path fill="#000000" opacity="1.00" d=" M 2.15 39.88 C -2.97 28.60 2.09 13.96 13.11 8.32 C 14.92 8.25 15.57 9.05 15.06 10.73 C 12.96 12.71 10.31 14.08 8.56 16.43 C 4.52 21.24 2.79 27.87 3.98 34.04 C 5.47 42.89 13.13 50.26 22.04 51.39 C 31.34 52.88 41.12 47.35 44.72 38.67 C 48.57 30.18 45.99 19.25 38.56 13.55 C 37.24 12.41 35.53 11.58 34.70 9.97 C 34.92 7.89 37.56 8.02 38.66 9.24 C 46.67 14.43 51.20 24.44 49.63 33.89 C 48.16 45.18 37.99 54.46 26.62 55.00 L 23.41 55.00 C 14.21 54.47 5.68 48.38 2.15 39.88 Z" />
</g>
</svg>
