<svg width="650pt" height="650pt" viewBox="0 0 650 650" version="1.1" xmlns="http://www.w3.org/2000/svg">
<path d=" M 16.44 356.47 C 227.55 237.83 438.52 118.96 649.66 0.39 C 641.20 33.21 632.23 65.89 623.58 98.66 C 590.24 223.70 556.85 348.74 523.56 473.79 C 520.96 482.39 518.79 491.12 516.63 499.85 C 513.58 508.34 512.49 517.36 509.57 525.90 C 507.37 532.03 506.36 538.47 504.75 544.76 C 501.36 555.70 499.03 566.94 495.66 577.89 C 493.21 588.39 490.06 598.70 487.50 609.17 C 431.92 581.58 376.46 553.76 320.99 525.96 C 297.80 563.68 274.06 601.07 250.71 638.70 C 248.31 642.34 245.90 646.00 244.10 650.00 L 243.89 650.00 C 241.61 644.49 240.26 638.65 238.17 633.07 C 234.63 623.71 231.98 614.06 228.40 604.72 C 226.32 596.76 222.83 589.28 220.58 581.38 C 210.82 552.87 201.19 524.34 191.56 495.79 C 189.07 487.13 185.40 478.88 182.81 470.25 C 181.18 465.49 179.82 460.62 177.89 455.96 C 177.33 453.90 175.14 453.25 173.49 452.30 C 141.39 436.08 109.14 420.14 77.01 403.96 C 51.27 391.34 25.84 378.08 0.00 365.68 L 0.00 365.32 C 5.90 363.19 10.87 359.26 16.44 356.47 M 605.46 47.70 C 601.17 50.77 596.44 53.13 591.89 55.76 C 571.41 67.31 550.87 78.74 530.44 90.39 C 524.62 93.21 519.38 97.11 513.33 99.48 C 502.82 106.83 490.68 111.39 480.10 118.64 C 334.57 200.51 189.05 282.36 43.52 364.23 C 48.94 368.26 55.35 370.57 61.26 373.75 C 89.22 387.80 117.24 401.73 145.20 415.79 C 155.12 420.42 164.61 425.98 174.75 430.13 C 213.57 397.82 252.38 365.51 291.15 333.13 C 299.39 326.65 307.08 319.47 315.55 313.28 C 324.35 304.84 334.15 297.49 343.45 289.62 C 389.47 251.23 435.48 212.85 481.56 174.56 C 494.53 163.36 508.29 153.14 521.23 141.91 C 524.78 140.06 526.92 136.49 530.05 134.08 C 542.54 123.92 554.77 113.48 567.12 103.15 C 563.69 108.37 559.41 112.96 555.87 118.11 C 555.41 118.29 554.47 118.64 554.01 118.82 C 553.27 120.43 552.60 122.09 551.58 123.54 C 534.73 145.09 518.18 166.87 501.33 188.42 C 499.69 190.72 498.08 193.10 495.77 194.80 C 493.38 199.83 489.40 203.80 486.10 208.22 C 447.57 257.96 409.18 307.79 370.70 357.57 C 369.26 359.62 367.65 361.55 365.87 363.31 C 360.00 371.85 353.41 379.89 347.08 388.10 C 323.23 419.08 299.13 449.87 275.45 480.99 C 279.83 482.58 283.72 485.20 287.95 487.12 C 340.38 513.37 392.84 539.55 445.28 565.79 C 449.59 567.68 453.38 570.60 457.87 572.12 C 463.73 574.27 468.65 578.78 474.94 579.71 C 475.67 574.12 477.46 568.77 479.25 563.46 C 481.45 553.62 483.91 543.83 486.97 534.22 C 488.48 527.92 489.50 521.43 492.29 515.53 C 492.94 512.31 493.50 509.08 494.27 505.89 C 533.03 360.61 571.75 215.33 610.50 70.06 C 612.69 60.53 615.93 51.27 617.89 41.69 C 613.42 43.02 609.89 46.29 605.46 47.70 M 410.11 260.07 C 377.78 286.73 345.78 313.79 313.48 340.46 C 309.37 344.07 305.32 347.81 300.52 350.50 C 287.38 362.76 273.18 373.83 259.56 385.55 C 237.66 403.41 216.21 421.84 194.34 439.75 C 210.02 488.07 226.34 536.19 242.16 584.48 C 242.60 584.70 243.49 585.15 243.93 585.37 C 244.09 554.59 243.91 523.82 244.02 493.04 C 244.19 490.53 243.67 487.68 245.45 485.61 C 289.05 429.48 332.68 373.37 376.28 317.25 C 395.87 291.67 416.13 266.59 435.38 240.78 C 434.54 240.98 432.85 241.38 432.01 241.58 C 424.78 247.81 417.39 253.89 410.11 260.07 M 264.10 497.85 C 264.09 524.71 263.82 551.58 264.22 578.42 C 265.02 577.47 265.82 576.51 266.47 575.45 C 273.51 563.91 280.88 552.58 287.90 541.03 C 293.10 533.35 297.48 525.14 302.82 517.56 C 298.07 513.81 292.16 512.06 286.99 509.00 C 279.25 505.50 271.92 501.18 264.10 497.85 Z" />
</svg>
