<svg width="600pt" height="542pt" viewBox="0 0 600 542" version="1.1" xmlns="http://www.w3.org/2000/svg">
<path d=" M 291.38 0.00 L 295.60 0.00 C 321.30 0.71 346.99 6.40 370.04 17.95 C 415.67 40.00 450.58 81.96 465.99 130.04 C 481.20 176.24 478.90 228.01 459.49 272.63 C 452.70 288.54 443.58 303.38 432.93 316.98 C 429.07 321.57 425.04 326.01 421.18 330.57 C 421.15 330.78 421.09 331.18 421.06 331.38 C 431.64 334.58 442.43 337.15 452.73 341.24 C 465.86 345.54 478.43 351.32 490.97 357.08 C 500.17 362.16 509.74 366.61 518.40 372.61 C 546.67 390.14 572.13 413.76 587.34 443.71 C 594.84 458.53 599.12 474.90 600.00 491.48 L 600.00 498.60 C 599.45 510.15 597.63 522.66 589.53 531.54 C 583.03 538.82 573.06 541.60 563.61 542.00 L 558.39 542.00 C 549.20 541.52 540.21 539.52 531.22 537.71 C 508.60 532.23 486.51 524.89 464.10 518.68 C 422.03 506.34 378.88 496.91 335.02 494.42 C 305.58 492.74 276.04 495.04 246.92 499.43 C 201.28 506.11 156.87 518.85 112.27 530.29 C 91.08 535.73 69.62 540.97 47.69 542.00 L 42.53 542.00 C 31.40 541.42 19.48 538.84 11.46 530.51 C 3.08 522.16 0.61 509.95 0.00 498.57 L 0.00 492.42 C 0.68 475.25 5.18 458.31 13.00 443.02 C 28.26 413.42 53.51 390.02 81.56 372.63 C 90.24 366.62 99.84 362.15 109.06 357.07 C 117.04 353.30 125.17 349.85 133.25 346.31 C 144.98 342.05 156.64 337.55 168.69 334.29 C 168.75 334.12 168.85 333.79 168.90 333.62 C 144.32 309.48 126.57 278.55 117.69 245.29 C 105.35 199.44 109.59 149.17 130.20 106.33 C 149.73 64.88 184.63 30.46 227.24 13.20 C 247.51 4.66 269.45 0.64 291.38 0.00 M 274.18 12.29 C 237.29 16.51 202.43 34.06 176.14 60.14 C 142.91 93.09 123.15 139.18 122.07 185.95 C 121.57 190.63 121.54 195.35 122.09 200.03 C 123.27 242.46 139.61 284.42 167.72 316.26 C 192.30 344.43 226.24 364.65 263.12 371.42 C 267.06 371.90 270.96 372.73 274.89 373.32 C 279.28 373.72 283.71 373.61 288.10 374.12 C 294.73 374.83 301.34 373.68 307.97 373.57 C 341.96 370.79 374.57 356.42 400.54 334.48 C 439.92 301.23 463.59 250.47 464.66 199.03 C 466.34 159.83 455.16 120.22 433.26 87.67 C 410.06 52.94 374.22 26.36 333.53 16.22 C 314.24 11.08 293.97 10.28 274.18 12.29 M 409.97 340.75 C 394.18 354.16 376.49 365.53 357.07 372.89 C 341.76 379.21 325.40 382.64 308.98 384.43 C 302.27 384.37 295.56 385.69 288.86 384.92 C 252.44 384.20 216.49 371.33 187.51 349.32 C 184.64 347.32 182.20 344.47 179.00 343.11 C 164.58 346.33 150.76 351.70 136.90 356.76 C 130.42 359.57 123.97 362.45 117.50 365.29 C 87.44 380.06 58.43 398.87 37.48 425.43 C 22.66 444.07 12.14 466.90 11.30 490.96 C 10.96 500.81 11.24 511.54 17.05 519.95 C 21.25 526.23 28.76 529.20 35.97 530.30 C 56.27 532.39 76.34 527.39 96.02 523.05 C 155.02 508.17 213.73 490.31 274.60 484.94 C 310.71 480.83 347.31 482.87 383.12 488.62 C 423.88 494.87 463.43 506.82 502.89 518.50 C 519.02 523.31 535.28 527.94 551.96 530.36 C 560.59 530.86 570.15 531.95 577.81 526.99 C 584.57 522.76 587.04 514.53 588.17 507.08 C 589.04 499.29 589.02 491.38 588.14 483.60 C 585.74 462.93 576.49 443.53 563.86 427.19 C 554.30 414.50 542.58 403.63 530.04 393.96 C 522.26 387.88 513.73 382.87 505.50 377.46 C 495.42 372.10 485.57 366.25 474.96 361.97 C 463.31 356.40 451.02 352.40 438.89 348.03 C 432.16 345.94 425.33 344.21 418.58 342.23 C 415.77 341.66 412.82 339.78 409.97 340.75 Z" />
</svg>
