<svg version="1" xmlns="http://www.w3.org/2000/svg" width="682.667" height="682.667" viewBox="0 0 512.000000 512.000000"><path d="M231.5 73c-10.5 1.6-13.2 2.1-21 4-15.7 3.7-26.2 7.6-42 15.6-7.7 4-25 14.6-26.5 16.3-.3.3-2.7 2.4-5.5 4.5-2.7 2.2-5.7 4.7-6.6 5.5-.8.9-3.1 3-5 4.6-5.8 5.1-18.8 20.5-24.4 29-8.5 12.8-19.3 35-20.2 41.5-.1.8-1.1 4.6-2.2 8.4-1.1 3.7-2.3 8.7-2.7 11-.3 2.2-.9 6.1-1.4 8.6-1.8 9.5-.9 41.7 1.6 52.9.3 1.4.7 3.5.9 4.6.5 2.7 7.1 22.4 9.2 27.1.9 2.2 1.7 4.1 1.8 4.4.3 1.4 6.9 13.6 10.4 19l3.9 6.2-4 9.7c-2.2 5.3-4.1 10-4.2 10.6-.2.5-.8 2.1-1.4 3.5-2.2 4.9-14.3 36.2-16.7 43.4-4.2 12.4-3.2 20.4 3.5 28 4.8 5.4 9.2 7.3 17.8 7.5 8.7.3 11.2-.9 41.2-18.8 10.7-6.4 20-11.8 20.5-12.1 2.2-1.1 11-6.4 11.5-7 1-1 5-3 6.2-3 .7 0 2.6.7 4.2 1.5 4.5 2.4 25.3 9.2 33.1 10.9 6.9 1.4 10.6 2.1 19.5 3.3 6 .9 38.9.9 46.5.1 8.3-.9 17.3-2.6 25.5-4.8 2.5-.7 5-1.3 5.5-1.4 1.5-.3 14.7-4.6 17-5.6 4.3-1.8 25.2-12.1 28-13.8 2.9-1.7 11.3-7.3 16.5-10.9 12.5-8.8 31.2-28.6 41.2-43.8 9.4-14.2 19.9-37.5 22.2-49.5.3-1.4 1.4-6.6 2.4-11.5 2.9-13.8 2.8-45.7-.2-61.2-3.3-16.6-12.6-39.6-21.9-54.3-9.1-14.4-22-29.3-35.2-40.6-6.9-5.9-20.1-15.4-21.4-15.4-.5 0-1.1-.4-1.3-.8-.6-1.7-19.9-11.3-32.3-16.2-6-2.4-21.3-7-25-7.5-1.1-.2-3.1-.6-4.5-.9-4.3-1-7.3-1.6-11.5-2.2-6-1-47.2-1.3-53-.4zm54.3 110.1c4 1.5 7.1 5.8 7.1 9.5-.1 1-.1 23.7 0 50.4 0 26.7-.2 49.8-.4 51.5-.1 1.6-.3 3.3-.4 3.8-.2 1.4-5.3 5.2-7.4 5.5-4.7.7-100.4.7-104.2.1-2.5-.5-4.9-1.8-6.6-3.7-2.6-2.9-2.7-3.4-2.9-16.3-.5-39.6-.2-91.7.5-93.9.9-2.9 3.6-5.7 6.7-7 2.9-1.1 104.5-1 107.6.1zm77 14.4c1.3 1.2 2.7 3.8 3.1 5.7.5 2 .9 20.6.9 41.3.1 40.9 0 41.9-5.3 45.8-6.1 4.4-11.3 2.2-31.5-13.2l-11.5-8.8-.2-24.9-.2-24.9 7.2-5.4c14.9-11.3 24.4-17.9 26.3-18.3 3.6-.8 8.9.4 11.2 2.7z"/></svg>