<?xml version="1.0" encoding="UTF-8" ?>
<!DOCTYPE svg PUBLIC "-//W3C//DTD SVG 1.1//EN" "http://www.w3.org/Graphics/SVG/1.1/DTD/svg11.dtd">
<svg width="605pt" height="445pt" viewBox="0 0 605 445" version="1.1" xmlns="http://www.w3.org/2000/svg">
<g id="#000000ff">
<path fill="#000000" opacity="1.00" d=" M 177.31 21.40 C 186.82 8.82 202.23 0.91 218.02 0.73 C 274.36 0.73 330.70 0.73 387.04 0.73 C 402.81 0.89 418.18 8.86 427.69 21.39 C 434.81 31.29 441.63 41.39 448.79 51.26 C 454.58 59.10 464.24 63.68 473.94 63.66 C 500.30 63.70 526.66 63.67 553.02 63.68 C 569.33 63.72 585.14 72.22 594.68 85.36 C 600.81 93.44 603.74 103.37 605.00 113.32 L 605.00 393.37 C 604.20 400.11 603.08 406.93 600.18 413.13 C 592.15 431.40 573.03 444.24 553.01 444.27 C 387.67 444.27 222.32 444.27 56.98 444.28 C 51.15 444.42 45.25 444.20 39.61 442.61 C 22.55 438.27 8.24 424.75 2.85 408.01 C 1.25 403.47 0.77 398.66 0.00 393.94 L 0.00 113.34 C 1.20 103.63 4.04 93.94 9.88 85.96 C 19.38 72.45 35.46 63.74 52.03 63.67 C 77.70 63.70 103.37 63.65 129.04 63.69 C 139.13 64.12 149.55 59.92 155.78 51.83 C 163.11 41.80 170.03 31.47 177.31 21.40 M 212.44 22.57 C 206.20 23.99 200.35 27.28 196.00 31.99 C 187.71 42.75 180.42 54.26 172.28 65.14 C 162.64 77.21 147.49 84.65 132.02 84.79 C 105.36 84.82 78.69 84.73 52.03 84.83 C 39.18 85.03 27.10 93.92 23.13 106.15 C 20.86 112.19 21.49 118.71 21.42 125.03 C 21.41 213.68 21.43 302.33 21.41 390.98 C 21.29 398.82 24.10 406.71 29.39 412.53 C 35.48 419.49 44.76 423.48 54.00 423.11 C 220.01 423.16 386.02 423.15 552.02 423.12 C 564.89 423.37 577.25 414.73 581.58 402.64 C 584.30 395.75 583.55 388.26 583.64 381.03 C 583.65 293.69 583.63 206.34 583.65 119.00 C 583.78 113.14 582.89 107.12 580.06 101.91 C 574.91 91.54 563.59 84.68 552.02 84.80 C 525.66 84.76 499.30 84.81 472.95 84.78 C 456.61 84.65 440.63 76.32 431.14 63.04 C 424.63 53.86 418.21 44.61 411.72 35.42 C 406.06 27.03 396.05 21.81 385.94 21.88 C 330.96 21.84 275.98 21.89 221.00 21.85 C 218.14 21.86 215.25 21.95 212.44 22.57 Z" />
<path fill="#000000" opacity="1.00" d=" M 286.61 97.89 C 315.18 95.00 344.71 100.11 370.01 113.90 C 392.85 125.95 412.24 144.34 425.73 166.33 C 449.53 204.64 453.38 254.37 436.09 295.97 C 419.33 337.43 382.26 370.02 338.90 381.04 C 319.30 386.26 298.59 386.91 278.61 383.72 C 249.66 378.96 222.41 364.92 201.52 344.38 C 184.32 327.56 171.41 306.40 164.40 283.40 C 158.29 263.30 156.77 241.86 159.61 221.07 C 163.88 190.40 178.46 161.26 200.49 139.49 C 223.33 116.33 254.29 101.43 286.61 97.89 M 284.53 119.77 C 263.77 122.94 243.79 131.35 227.24 144.31 C 208.71 158.62 194.47 178.38 186.64 200.44 C 180.60 217.84 178.14 236.61 180.38 254.94 C 183.23 281.27 194.93 306.63 213.29 325.74 C 227.30 340.69 245.14 352.04 264.67 358.28 C 285.71 365.14 308.61 366.19 330.16 361.10 C 353.59 355.78 375.29 343.26 391.71 325.74 C 407.98 308.79 419.00 286.97 423.30 263.89 C 430.52 226.91 419.14 186.88 393.65 159.15 C 366.93 128.84 324.44 113.63 284.53 119.77 Z" />
<path fill="#000000" opacity="1.00" d=" M 496.61 115.41 C 509.88 115.35 523.15 115.35 536.42 115.42 C 536.31 122.47 536.31 129.52 536.41 136.57 C 523.14 136.57 509.87 136.58 496.60 136.56 C 496.72 129.51 496.69 122.46 496.61 115.41 Z" />
</g>
</svg>
