<svg width="432pt" height="432pt" viewBox="0 0 432 432" version="1.1" xmlns="http://www.w3.org/2000/svg">
<path d=" M 103.98 95.00 C 127.74 81.14 156.72 76.67 183.59 82.49 C 209.87 88.01 233.77 103.53 249.80 125.03 C 269.65 112.73 294.44 108.89 317.09 114.55 C 338.38 119.71 357.44 133.25 369.46 151.56 C 378.71 165.43 383.66 181.98 384.03 198.63 C 397.28 204.45 408.92 213.87 417.27 225.70 C 426.18 238.11 431.15 253.14 432.00 268.37 L 432.00 275.59 C 431.06 293.23 424.37 310.54 412.80 323.92 C 397.90 341.54 375.10 352.13 352.01 351.99 C 261.33 352.00 170.65 352.00 79.97 351.99 C 55.40 352.17 31.19 340.17 16.40 320.56 C 6.49 307.72 0.86 291.79 0.00 275.61 L 0.00 269.35 C 0.52 257.68 3.37 246.07 8.74 235.67 C 17.06 219.32 31.18 205.96 48.05 198.69 C 47.69 186.37 48.67 173.94 52.06 162.05 C 59.69 134.04 78.83 109.46 103.98 95.00 M 124.75 102.69 C 103.38 111.05 85.30 127.41 74.77 147.79 C 64.95 166.60 61.71 188.72 65.61 209.56 C 57.06 211.76 48.82 215.38 41.76 220.74 C 27.17 231.54 17.55 248.79 16.24 266.92 C 14.90 282.25 19.47 297.97 28.73 310.25 C 38.38 323.21 53.06 332.32 69.00 335.02 C 75.94 336.32 83.02 335.94 90.03 336.00 C 177.35 335.99 264.67 336.01 351.99 335.99 C 367.28 336.03 382.47 330.32 393.97 320.24 C 405.96 309.87 413.90 294.91 415.58 279.12 C 417.33 264.09 413.46 248.48 404.88 236.01 C 396.12 223.10 382.51 213.61 367.36 209.85 C 368.96 197.47 367.49 184.67 362.78 173.09 C 356.78 158.13 345.58 145.35 331.56 137.40 C 318.44 129.88 302.90 126.75 287.88 128.45 C 272.12 130.18 257.01 137.33 245.72 148.48 C 235.90 129.76 220.16 114.11 200.95 105.15 C 177.33 93.89 149.05 93.01 124.75 102.69 Z" />
</svg>
