<svg width="260pt" height="282pt" viewBox="0 0 260 282" version="1.1" xmlns="http://www.w3.org/2000/svg">
<path d=" M 46.13 0.00 L 244.76 0.00 C 249.27 0.11 253.92 1.76 256.62 5.53 C 259.88 9.60 259.37 15.09 259.36 19.97 C 259.31 102.65 259.36 185.33 259.33 268.01 C 259.68 275.62 252.92 282.07 245.41 282.00 L 47.82 282.00 C 41.95 282.16 35.78 279.02 33.74 273.29 C 32.10 268.09 32.97 262.55 32.77 257.20 C 24.03 256.53 14.99 255.88 6.96 252.05 C 3.89 250.50 0.62 247.87 0.63 244.11 C 0.94 240.10 4.62 237.53 8.00 236.06 C 15.80 232.72 24.38 231.88 32.76 231.49 C 32.77 228.53 32.77 225.57 32.77 222.62 C 24.06 222.28 15.08 221.39 7.10 217.67 C 3.71 216.13 0.10 213.04 0.71 208.93 C 1.50 204.84 5.52 202.63 9.05 201.19 C 16.57 198.31 24.69 197.24 32.72 197.29 C 32.76 194.30 32.77 191.31 32.77 188.32 C 25.41 187.75 17.95 187.25 10.92 184.81 C 7.18 183.47 3.04 181.66 1.22 177.88 C -0.42 174.71 1.73 171.13 4.35 169.30 C 7.80 166.88 11.87 165.37 16.03 164.76 C 21.61 164.09 27.09 162.59 32.74 162.59 C 32.75 159.61 32.74 156.64 32.72 153.68 C 23.78 154.03 15.10 151.44 6.78 148.44 C 3.30 147.24 0.04 143.86 0.71 139.94 C 1.47 136.11 5.17 133.96 8.48 132.55 C 16.20 129.44 24.60 128.25 32.89 128.63 C 32.90 125.52 32.90 122.41 32.89 119.30 C 24.77 118.42 16.34 118.51 8.73 115.13 C 5.14 113.65 1.12 111.17 0.62 106.95 C 0.53 103.22 3.71 100.47 6.77 98.93 C 14.83 94.95 23.97 94.36 32.78 93.68 C 32.77 90.69 32.76 87.70 32.73 84.72 C 23.98 84.71 15.00 83.59 6.98 79.89 C 3.61 78.33 0.03 75.16 0.72 71.06 C 1.62 66.98 5.66 64.87 9.20 63.40 C 16.69 60.51 24.81 59.66 32.78 59.38 C 32.78 56.42 32.78 53.47 32.77 50.51 C 24.39 50.12 15.82 49.29 8.04 45.96 C 4.63 44.48 0.96 41.93 0.63 37.90 C 0.66 34.16 3.86 31.48 6.96 29.95 C 14.99 26.08 24.04 25.54 32.78 24.81 C 32.91 19.67 32.23 14.42 33.52 9.39 C 35.09 3.87 40.59 0.40 46.13 0.00 M 38.00 13.88 C 37.92 24.32 38.02 34.77 37.96 45.21 C 41.81 45.19 45.61 44.47 49.44 44.22 C 51.88 44.88 52.11 48.85 49.51 49.40 C 45.73 50.25 41.82 50.24 37.98 50.67 C 37.97 60.33 37.99 69.99 37.97 79.65 C 41.68 79.55 45.34 78.92 49.05 78.72 C 51.74 78.78 52.22 82.81 49.81 83.76 C 45.96 84.66 41.99 84.79 38.06 85.00 C 37.93 94.69 37.89 104.37 38.12 114.05 C 41.99 113.98 45.80 113.22 49.66 113.12 C 51.91 114.00 52.03 117.74 49.53 118.28 C 45.61 119.28 41.51 119.04 37.50 119.23 C 37.61 129.07 37.61 138.92 37.51 148.77 C 41.45 148.88 45.25 147.79 49.13 147.48 C 51.81 147.79 52.23 151.85 49.67 152.69 C 45.72 153.73 41.57 153.38 37.53 153.42 C 38.70 163.21 37.53 173.14 38.07 182.99 C 42.02 182.88 45.90 182.07 49.85 182.03 C 51.46 182.99 51.93 185.20 50.62 186.63 C 46.64 188.23 42.22 187.87 38.04 188.34 C 37.93 198.01 37.97 207.67 38.01 217.34 C 41.76 217.29 45.48 216.71 49.21 216.38 C 51.91 216.75 52.13 220.86 49.55 221.58 C 45.75 222.38 41.84 222.47 37.99 222.83 C 38.03 232.50 37.85 242.17 38.08 251.84 C 41.69 251.73 45.26 251.10 48.86 250.89 C 51.62 250.64 52.31 254.97 49.87 255.85 C 46.01 256.93 41.95 256.83 37.99 257.23 C 38.03 261.19 37.82 265.15 38.06 269.11 C 38.34 273.51 42.59 276.92 46.92 276.68 C 107.59 276.67 168.26 276.69 228.93 276.67 C 233.59 276.86 237.74 272.69 237.52 268.03 C 237.57 183.39 237.55 98.76 237.53 14.12 C 237.81 9.43 233.66 5.14 228.96 5.35 C 169.96 5.28 110.96 5.35 51.96 5.31 C 49.71 5.32 47.45 5.21 45.21 5.45 C 41.13 5.90 37.87 9.79 38.00 13.88 M 240.02 5.18 C 240.43 6.11 240.85 7.04 241.28 7.96 C 242.13 9.85 242.68 11.85 242.57 13.94 C 242.56 98.64 242.57 183.34 242.57 268.05 C 242.84 271.21 241.22 274.01 240.03 276.82 C 243.13 276.74 246.33 277.10 249.36 276.28 C 252.22 274.58 254.74 271.54 254.43 268.03 C 254.45 183.32 254.42 98.62 254.44 13.92 C 254.85 10.29 251.95 7.71 249.50 5.55 C 246.35 5.25 243.18 5.12 240.02 5.18 M 9.39 34.42 C 7.69 35.15 6.48 36.60 5.25 37.93 C 12.67 44.51 23.32 44.81 32.72 45.41 C 32.76 40.30 32.78 35.19 32.69 30.09 C 24.78 30.29 16.66 31.07 9.39 34.42 M 11.18 68.08 C 8.89 68.87 6.96 70.37 5.23 72.02 C 6.69 73.55 8.26 75.07 10.28 75.82 C 17.35 78.80 25.10 79.53 32.70 79.79 C 32.76 74.68 32.76 69.57 32.70 64.46 C 25.42 64.66 18.03 65.45 11.18 68.08 M 9.33 103.37 C 7.67 104.09 6.47 105.47 5.37 106.86 C 12.76 113.73 23.49 112.82 32.68 114.82 C 32.67 109.46 32.81 104.09 32.67 98.73 C 24.78 99.46 16.59 99.85 9.33 103.37 M 11.01 136.99 C 9.25 138.21 5.65 138.99 6.05 141.64 C 8.66 144.45 12.06 146.62 15.95 147.01 C 21.50 147.60 27.03 148.45 32.61 148.58 C 32.70 143.44 33.04 138.30 32.93 133.16 C 25.56 133.80 17.97 134.33 11.01 136.99 M 5.39 175.10 C 6.46 176.52 7.66 177.91 9.33 178.62 C 16.59 182.10 24.77 182.59 32.66 183.22 C 32.77 178.05 32.74 172.89 32.69 167.73 C 23.32 168.13 12.87 168.75 5.39 175.10 M 10.22 206.18 C 8.21 206.94 6.65 208.44 5.22 210.00 C 7.12 211.84 9.34 213.37 11.87 214.22 C 18.55 216.56 25.68 217.44 32.75 217.53 C 32.74 212.41 32.82 207.28 32.68 202.16 C 25.08 202.48 17.29 203.16 10.22 206.18 M 5.29 244.03 C 6.46 245.40 7.66 246.84 9.36 247.55 C 16.63 250.93 24.76 251.67 32.67 251.93 C 32.80 246.82 32.73 241.72 32.72 236.61 C 23.33 237.15 12.74 237.55 5.29 244.03 Z" />
<path d=" M 113.05 38.05 C 123.20 32.81 134.98 32.44 146.13 33.34 C 156.81 34.48 167.48 39.03 174.38 47.48 C 184.26 59.42 186.19 76.49 181.97 91.08 C 179.63 99.19 174.66 107.35 166.29 110.23 C 163.75 119.14 156.89 126.27 148.47 129.92 C 148.49 130.36 148.52 131.23 148.54 131.66 C 155.68 133.87 162.50 137.11 168.55 141.52 C 170.24 142.81 171.97 144.18 172.84 146.18 C 177.56 149.29 179.96 154.88 181.97 159.97 C 183.99 165.94 184.64 172.40 183.87 178.65 C 182.98 180.55 180.74 180.06 179.05 180.18 C 151.01 180.12 122.98 180.20 94.95 180.15 C 93.46 180.36 91.66 179.64 91.53 177.96 C 90.30 166.50 94.01 154.41 102.01 146.02 C 103.81 144.46 105.73 143.05 107.39 141.34 C 113.05 136.56 120.17 134.07 127.04 131.60 C 127.77 129.39 125.17 129.10 123.82 128.18 C 116.66 124.57 111.54 117.73 109.17 110.16 C 103.01 108.05 98.45 102.90 95.84 97.08 C 90.79 86.01 90.14 73.07 93.65 61.46 C 96.65 51.49 103.65 42.67 113.05 38.05 M 130.39 38.50 C 121.73 39.29 113.02 42.61 106.94 48.99 C 98.66 57.29 95.74 69.73 96.86 81.15 C 97.89 89.75 100.85 99.04 108.31 104.19 C 108.46 98.14 108.24 92.09 108.40 86.04 C 108.35 84.79 109.29 83.84 109.95 82.89 C 116.85 74.23 127.94 69.43 138.89 69.20 C 143.07 73.45 148.92 76.28 154.99 75.68 C 158.99 75.73 162.40 73.07 166.40 73.13 C 166.89 74.68 167.34 76.27 167.24 77.93 C 167.24 86.62 167.11 95.33 167.31 104.02 C 172.12 100.98 174.93 95.75 176.67 90.50 C 178.96 83.90 179.14 76.77 178.43 69.88 C 177.09 59.42 171.39 49.21 162.12 43.83 C 152.66 38.03 141.14 37.73 130.39 38.50 M 113.46 86.57 C 114.00 95.53 111.66 105.29 116.28 113.51 C 121.07 122.93 132.58 128.47 142.90 125.97 C 153.46 123.72 161.85 113.89 162.12 103.05 C 161.92 95.21 162.02 87.37 161.97 79.53 C 153.45 82.25 143.51 80.57 136.92 74.34 C 127.88 75.12 119.18 79.46 113.46 86.57 M 132.50 131.28 C 132.15 133.05 132.88 135.87 130.56 136.42 C 128.37 137.32 126.01 137.66 123.66 137.52 L 123.22 138.37 C 119.01 140.79 114.24 142.36 110.52 145.59 C 108.72 147.16 106.89 148.69 104.93 150.07 C 103.00 153.72 100.14 156.88 98.90 160.87 C 97.21 165.35 96.56 170.14 96.67 174.90 C 124.07 174.86 151.48 174.97 178.89 174.85 C 179.57 162.16 172.61 149.67 161.65 143.33 C 156.18 139.47 149.58 137.95 143.46 135.52 C 143.09 134.15 143.15 132.72 143.07 131.32 C 139.55 131.72 136.02 131.49 132.50 131.28 Z" />
<path d=" M 118.56 93.05 C 118.19 88.93 124.38 86.72 126.54 90.39 C 128.88 93.28 126.23 97.06 123.05 97.67 C 120.96 96.93 118.41 95.67 118.56 93.05 Z" />
<path d=" M 150.30 89.19 C 152.91 87.24 157.30 89.64 156.80 92.94 C 157.26 96.19 152.99 98.54 150.37 96.74 C 147.54 95.29 147.42 90.63 150.30 89.19 Z" />
<path d=" M 135.22 141.82 C 136.32 141.25 137.42 140.67 138.51 140.09 C 138.95 140.62 139.83 141.67 140.28 142.20 C 140.59 150.79 140.23 159.39 140.34 167.98 C 140.89 171.20 135.94 172.10 135.23 169.04 C 134.93 159.97 135.36 150.89 135.22 141.82 Z" />
<path d=" M 80.03 200.80 C 79.02 198.86 80.81 196.55 82.93 196.99 C 119.66 196.99 156.38 196.94 193.10 197.01 C 194.97 196.72 195.44 198.79 196.23 199.99 C 194.57 203.08 190.92 202.20 188.04 202.29 C 153.34 202.26 118.64 202.26 83.95 202.29 C 82.56 202.24 80.66 202.38 80.03 200.80 Z" />
<path d=" M 81.49 217.59 C 83.64 217.28 85.82 217.44 87.99 217.42 C 122.95 217.46 157.91 217.39 192.87 217.46 C 196.13 217.30 196.57 221.36 194.12 222.88 C 156.81 222.70 119.49 222.93 82.18 222.77 C 79.41 222.74 78.85 218.38 81.49 217.59 Z" />
<path d=" M 81.33 238.14 C 118.56 237.80 155.83 238.07 193.07 238.00 C 195.15 237.69 196.77 240.70 195.21 242.18 C 194.39 243.67 192.38 243.07 191.01 243.29 C 155.02 243.23 119.02 243.32 83.03 243.25 C 79.95 243.99 78.46 239.29 81.33 238.14 Z" />
</svg>
