<?xml version="1.0" encoding="UTF-8" ?>
<!DOCTYPE svg PUBLIC "-//W3C//DTD SVG 1.1//EN" "http://www.w3.org/Graphics/SVG/1.1/DTD/svg11.dtd">
<svg width="329pt" height="311pt" viewBox="0 0 329 311" version="1.1" xmlns="http://www.w3.org/2000/svg">
<g id="#000000ff">
<path fill="#000000" opacity="1.00" d=" M 89.15 0.00 L 115.85 0.00 C 122.73 1.71 129.78 2.75 136.44 5.26 C 151.43 10.61 164.96 19.57 176.29 30.69 C 178.62 33.08 180.36 35.99 182.81 38.28 C 189.47 46.85 194.85 56.39 198.72 66.54 C 207.25 89.60 207.21 115.63 198.36 138.60 C 193.44 150.99 186.40 162.59 177.24 172.30 C 165.92 184.32 151.70 193.59 136.13 199.11 C 125.47 202.93 114.17 204.37 102.93 205.08 C 90.94 204.56 78.91 202.80 67.57 198.71 C 54.36 193.63 41.85 186.29 31.76 176.29 C 15.21 160.79 4.13 139.51 0.99 117.04 C 0.77 115.55 0.44 114.09 0.00 112.65 L 0.00 91.87 C 1.57 84.57 2.41 77.08 4.99 70.02 C 10.07 54.96 18.59 41.08 29.70 29.73 C 41.48 18.22 55.80 9.21 71.53 4.24 C 77.28 2.32 83.29 1.45 89.15 0.00 M 81.46 17.70 C 79.09 18.24 76.70 18.78 74.48 19.80 C 74.00 19.89 73.05 20.09 72.58 20.18 C 69.61 21.73 66.38 22.70 63.41 24.23 C 48.73 31.80 36.09 43.27 27.71 57.55 C 25.77 61.12 23.72 64.64 22.29 68.46 C 22.03 68.98 21.51 70.00 21.26 70.51 C 20.96 71.53 20.67 72.55 20.36 73.57 C 19.99 74.56 19.61 75.55 19.21 76.54 C 19.10 77.01 18.89 77.96 18.78 78.44 C 16.06 86.03 16.23 94.11 15.14 101.98 C 16.22 108.49 15.70 115.19 17.70 121.54 C 17.97 122.88 18.22 124.22 18.65 125.52 C 19.45 128.20 20.31 130.87 21.27 133.50 C 22.29 135.84 23.22 138.22 24.20 140.58 C 33.66 159.00 49.36 174.30 68.56 182.28 C 72.39 183.99 76.36 185.43 80.48 186.30 C 98.57 191.20 118.16 189.68 135.53 182.73 C 136.03 182.48 137.05 181.98 137.55 181.73 C 139.87 180.62 142.16 179.46 144.45 178.30 C 161.59 169.03 175.35 153.57 182.70 135.54 C 182.95 135.02 183.46 133.99 183.72 133.47 C 184.04 132.45 184.39 131.44 184.78 130.44 C 184.89 129.97 185.11 129.01 185.22 128.54 C 187.27 123.61 187.79 118.26 188.91 113.09 C 189.00 103.58 189.73 93.96 187.76 84.60 C 186.83 81.58 186.45 78.42 185.22 75.49 C 185.12 75.01 184.91 74.04 184.80 73.56 C 183.84 71.16 182.91 68.74 181.76 66.42 C 180.59 64.14 179.44 61.85 178.30 59.56 C 168.95 42.55 153.55 28.86 135.50 21.71 C 133.88 20.91 132.20 20.23 130.48 19.66 C 128.20 18.88 125.87 18.24 123.53 17.70 C 109.78 14.12 95.20 14.05 81.46 17.70 Z" />
<path fill="#000000" opacity="1.00" d=" M 213.19 0.00 L 239.74 0.00 C 246.17 1.65 252.81 2.47 259.06 4.80 C 273.36 9.45 286.10 17.82 297.34 27.68 C 297.57 28.01 298.04 28.68 298.27 29.02 L 299.00 29.00 L 299.06 29.63 C 311.78 42.43 321.11 58.61 325.75 76.06 C 327.35 81.35 327.64 86.92 329.00 92.26 L 329.00 112.04 C 327.67 116.97 327.48 122.13 326.03 127.03 C 322.15 143.08 313.79 157.67 303.39 170.36 C 302.99 170.57 302.18 170.99 301.78 171.20 L 302.18 172.17 L 300.82 171.84 L 301.18 173.17 L 299.87 172.85 L 300.13 174.15 L 298.79 173.82 L 299.25 175.25 L 297.74 174.75 L 298.31 175.89 L 297.09 176.09 L 296.84 177.26 L 295.93 176.86 L 296.02 178.03 L 295.40 178.07 C 287.85 184.93 279.27 190.71 270.01 195.02 C 256.35 201.76 241.10 204.51 225.99 205.08 C 214.30 204.44 202.60 202.71 191.54 198.71 C 185.16 196.12 178.75 193.36 173.02 189.52 C 173.34 187.12 176.57 186.37 178.17 184.80 L 177.79 184.28 C 178.16 184.01 178.90 183.49 179.27 183.23 C 180.99 181.51 182.73 179.82 184.40 178.07 C 200.22 187.50 219.27 190.57 237.42 188.55 C 256.44 185.95 274.96 177.31 288.20 163.25 C 289.40 161.97 290.71 160.79 292.08 159.69 L 292.04 159.45 C 298.59 151.69 304.10 142.98 307.71 133.47 C 310.07 126.85 312.02 120.05 312.83 113.05 C 313.38 106.02 313.35 98.97 312.92 91.93 C 310.89 73.38 302.22 55.94 289.79 42.16 C 288.48 41.00 287.19 39.82 285.91 38.65 L 286.16 38.25 C 280.69 34.23 275.54 29.78 269.58 26.46 C 256.12 18.67 240.46 14.95 224.96 14.94 C 210.88 15.56 196.70 18.90 184.45 26.01 C 183.22 24.78 182.00 23.54 180.78 22.31 C 180.53 22.00 180.04 21.40 179.79 21.10 C 177.25 19.09 174.54 17.22 172.55 14.62 C 178.39 11.75 184.01 8.41 190.16 6.17 C 197.56 3.13 205.45 1.81 213.19 0.00 Z" />
<path fill="#000000" opacity="1.00" d=" M 208.51 26.26 C 215.62 25.02 222.81 23.61 230.07 24.04 C 234.85 24.91 239.72 25.15 244.47 26.27 C 246.16 26.76 247.87 27.20 249.54 27.78 C 250.02 27.88 250.99 28.08 251.48 28.18 C 253.46 29.02 255.47 29.81 257.45 30.68 C 260.12 32.00 262.78 33.37 265.45 34.69 C 278.35 42.12 288.82 53.29 295.77 66.42 C 297.32 69.37 298.39 72.53 299.83 75.53 C 299.92 76.00 300.11 76.95 300.21 77.42 C 300.60 78.43 300.99 79.44 301.36 80.46 C 302.93 86.51 304.39 92.71 304.03 99.01 C 304.12 105.55 304.22 112.08 302.76 118.48 C 302.19 120.16 301.78 121.88 301.34 123.59 C 300.53 126.25 299.63 128.88 298.74 131.52 C 298.49 132.03 297.99 133.05 297.74 133.56 C 296.91 135.19 296.09 136.81 295.29 138.45 C 287.89 152.72 275.78 164.34 261.58 171.78 C 255.49 174.61 249.17 177.11 242.54 178.29 C 232.08 180.70 220.89 180.80 210.45 178.27 C 203.55 177.18 197.19 174.24 190.77 171.65 C 191.26 170.29 191.83 168.94 192.73 167.80 C 196.33 162.95 199.40 157.73 202.31 152.45 C 204.07 149.23 204.93 145.61 206.85 142.47 C 206.93 141.98 207.08 141.00 207.15 140.51 C 207.75 139.19 208.29 137.84 208.84 136.50 C 208.93 136.01 209.12 135.03 209.21 134.54 C 211.97 127.00 212.86 118.95 214.00 111.06 C 214.05 105.37 213.96 99.69 214.03 94.01 C 213.16 85.72 211.71 77.47 209.34 69.46 C 208.97 68.45 208.60 67.45 208.20 66.46 C 208.11 65.98 207.92 65.04 207.82 64.56 C 206.91 62.59 206.12 60.56 205.28 58.56 C 203.57 54.41 201.46 50.46 199.29 46.55 C 197.02 42.23 194.21 38.23 191.17 34.43 C 190.41 32.13 194.12 31.74 195.54 30.69 C 197.52 29.87 199.52 29.09 201.50 28.24 C 203.84 27.59 206.19 26.98 208.51 26.26 Z" />
<path fill="#000000" opacity="1.00" d=" M 73.46 35.21 C 74.47 34.95 75.47 34.69 76.48 34.43 C 77.54 34.68 78.62 34.91 79.69 35.13 C 82.47 37.03 82.55 40.68 81.66 43.61 C 80.53 45.66 77.99 46.04 76.10 47.07 C 64.21 52.87 54.06 62.50 48.26 74.44 C 48.01 74.94 47.53 75.94 47.28 76.44 C 46.48 78.86 44.92 80.89 42.59 82.00 C 41.21 81.99 39.83 81.99 38.45 81.99 C 37.30 80.84 36.15 79.69 34.98 78.56 C 34.39 74.90 35.92 71.63 37.71 68.56 C 44.34 55.78 54.79 45.17 67.40 38.22 C 69.46 37.30 71.48 36.29 73.46 35.21 Z" />
<path fill="#000000" opacity="1.00" d=" M 146.40 37.81 C 150.08 40.73 153.98 43.44 157.31 46.76 C 158.95 47.90 157.17 49.44 156.54 50.58 C 154.34 53.40 152.29 56.34 150.70 59.56 C 149.32 62.19 148.03 64.88 146.71 67.55 C 145.80 69.53 145.02 71.57 144.20 73.59 C 144.10 74.06 143.89 74.99 143.78 75.46 C 139.22 87.79 139.30 101.14 140.20 114.06 C 140.99 118.60 141.99 123.10 143.23 127.54 C 143.74 128.89 144.25 130.23 144.82 131.55 C 144.91 132.04 145.08 133.00 145.17 133.48 C 148.43 141.52 152.93 148.96 158.03 155.97 C 155.53 160.11 150.98 162.60 147.45 165.85 C 147.19 165.89 146.66 165.97 146.40 166.01 C 142.90 161.87 139.98 157.26 137.24 152.59 C 135.12 148.64 133.26 144.56 131.28 140.53 C 129.35 135.26 127.67 129.90 126.25 124.47 C 122.82 107.99 122.94 90.64 127.78 74.45 C 127.88 73.97 128.10 73.01 128.21 72.53 C 128.59 71.53 128.96 70.52 129.31 69.51 C 129.63 68.50 129.95 67.49 130.28 66.49 C 131.58 63.10 132.95 59.74 134.74 56.57 C 137.68 49.77 142.21 43.86 146.40 37.81 Z" />
<path fill="#000000" opacity="1.00" d=" M 163.46 56.00 C 163.96 56.03 164.96 56.09 165.46 56.12 C 168.01 60.15 170.61 64.17 172.80 68.41 C 173.75 70.81 174.58 73.26 175.83 75.53 C 175.92 76.02 176.11 76.99 176.20 77.47 C 178.29 82.39 178.87 87.75 179.93 92.95 C 180.00 101.46 180.57 110.05 178.77 118.43 C 178.17 120.11 177.79 121.85 177.32 123.56 C 176.78 125.21 176.24 126.86 175.77 128.54 C 174.88 130.93 173.92 133.31 172.74 135.58 C 170.54 140.49 167.49 144.91 164.42 149.30 C 162.14 145.71 159.50 142.32 157.72 138.44 C 157.24 137.48 156.75 136.52 156.26 135.57 C 155.60 134.22 154.93 132.88 154.25 131.54 C 153.24 128.53 152.24 125.52 151.27 122.50 C 151.02 121.13 150.78 119.75 150.24 118.46 C 148.37 110.09 149.01 101.48 149.06 92.96 C 149.79 88.76 150.30 84.47 151.77 80.45 C 151.88 79.97 152.10 79.01 152.22 78.53 C 152.60 77.53 152.96 76.52 153.31 75.51 C 154.23 73.12 155.19 70.75 156.22 68.41 C 158.28 64.07 161.07 60.16 163.46 56.00 Z" />
<path fill="#000000" opacity="1.00" d=" M 114.76 119.02 C 116.11 121.35 115.73 124.12 116.72 126.55 C 117.28 129.34 117.72 132.19 118.95 134.78 C 108.38 141.28 99.17 150.04 92.33 160.41 C 88.90 165.67 85.53 171.06 83.72 177.13 C 78.42 177.37 73.93 174.10 68.97 172.75 C 69.01 172.19 69.07 171.07 69.10 170.51 C 71.45 166.27 73.34 161.79 75.71 157.55 C 84.98 141.47 98.75 128.32 114.76 119.02 Z" />
<path fill="#000000" opacity="1.00" d=" M 121.60 143.74 C 124.40 144.83 124.20 148.39 125.88 150.52 C 125.92 151.04 125.99 152.09 126.02 152.61 C 116.82 161.67 107.65 170.75 98.67 180.03 C 96.48 179.88 92.90 180.90 92.87 177.62 C 93.97 176.02 94.91 174.31 95.72 172.55 C 101.63 160.86 111.04 151.33 121.60 143.74 Z" />
<path fill="#000000" opacity="1.00" d=" M 132.50 164.08 C 132.76 164.07 133.28 164.06 133.54 164.05 C 135.29 166.46 137.22 168.81 138.25 171.66 C 133.03 173.60 127.97 176.03 122.52 177.31 C 121.78 177.54 120.31 177.99 119.57 178.22 C 120.21 175.64 122.47 174.08 124.22 172.27 C 127.05 169.61 129.59 166.65 132.50 164.08 Z" />
<path fill="#000000" opacity="1.00" d=" M 167.44 197.99 C 167.96 198.01 168.99 198.05 169.51 198.07 C 172.58 200.11 175.75 202.04 179.23 203.31 C 170.58 211.95 161.84 220.50 153.38 229.32 C 151.13 231.52 148.47 233.42 147.02 236.29 C 141.98 240.00 137.65 244.52 133.79 249.40 L 133.52 250.48 C 133.10 250.57 132.27 250.75 131.85 250.84 C 125.72 256.40 120.28 262.80 113.98 268.15 C 110.97 265.79 108.29 262.94 105.80 260.04 C 108.63 255.84 113.45 253.57 116.31 249.40 C 119.03 245.74 122.54 242.86 126.11 240.11 C 129.16 236.50 132.96 233.62 135.76 229.79 C 146.33 219.20 157.07 208.77 167.44 197.99 Z" />
<path fill="#000000" opacity="1.00" d=" M 62.04 206.68 C 63.86 207.18 65.66 207.72 67.47 208.27 C 70.84 209.69 75.11 209.56 77.82 212.21 C 77.90 232.42 86.55 252.06 99.74 267.16 C 109.26 277.63 121.28 285.81 134.56 290.71 C 147.22 294.88 160.96 297.56 174.22 295.22 C 194.24 293.63 212.81 283.55 227.04 269.66 L 226.76 269.22 C 227.16 268.99 227.95 268.53 228.35 268.30 C 241.76 252.86 251.29 232.98 251.00 212.24 C 256.32 210.66 261.59 208.92 266.97 207.53 C 267.82 234.12 256.80 260.30 238.89 279.73 C 238.59 280.01 237.98 280.59 237.68 280.87 C 228.22 290.07 217.28 297.96 205.09 303.13 C 196.47 307.09 187.17 309.04 177.95 311.00 L 150.90 311.00 C 145.12 309.49 139.17 308.68 133.49 306.74 C 132.46 306.40 131.43 306.08 130.40 305.76 L 129.53 305.35 C 116.78 301.08 105.56 293.40 95.31 284.86 C 94.95 284.57 94.24 283.99 93.88 283.70 L 94.12 282.88 L 92.87 283.13 L 93.09 281.93 L 91.86 282.09 L 92.14 281.38 C 82.07 272.06 74.82 259.99 69.37 247.47 C 64.32 234.53 61.28 220.62 62.04 206.68 Z" />
<path fill="#000000" opacity="1.00" d=" M 124.60 211.69 C 129.58 210.70 134.43 209.20 139.30 207.81 C 138.77 210.67 135.78 211.94 134.08 214.04 C 129.34 219.30 123.92 223.90 119.43 229.38 C 117.10 232.10 113.33 233.28 111.55 236.51 C 109.66 240.20 105.92 242.26 103.17 245.21 C 101.40 246.74 100.02 249.13 97.43 249.21 C 97.15 248.55 96.58 247.22 96.29 246.56 C 95.30 244.50 94.27 242.46 93.10 240.50 C 93.07 239.98 93.01 238.94 92.98 238.42 C 101.38 230.32 109.42 221.86 117.81 213.76 C 119.55 211.86 122.29 212.13 124.60 211.69 Z" />
<path fill="#000000" opacity="1.00" d=" M 191.46 208.86 C 193.85 209.05 196.20 209.57 198.48 210.32 C 200.69 211.00 203.03 211.22 205.19 212.08 C 200.17 217.43 195.01 222.68 189.70 227.75 C 185.99 230.58 183.39 234.47 180.78 238.26 C 178.39 238.01 177.18 240.30 175.76 241.78 C 171.39 247.07 165.89 251.24 161.26 256.28 C 153.02 264.52 144.71 272.69 136.57 281.02 C 136.06 280.99 135.04 280.93 134.52 280.91 C 131.31 279.04 127.75 277.80 124.76 275.56 C 132.31 268.50 139.29 260.87 146.92 253.89 C 161.39 238.51 176.83 224.09 191.46 208.86 Z" />
<path fill="#000000" opacity="1.00" d=" M 86.98 212.96 C 91.18 212.54 95.16 214.26 99.35 214.04 C 95.69 217.50 92.64 221.77 88.29 224.38 C 87.25 220.66 86.73 216.83 86.98 212.96 Z" />
<path fill="#000000" opacity="1.00" d=" M 221.08 214.01 C 226.57 213.58 232.38 215.02 237.63 212.88 C 237.00 214.11 236.31 215.33 235.29 216.28 C 227.08 224.41 218.86 232.55 211.03 241.03 C 206.33 244.31 203.28 249.26 198.91 252.88 C 193.77 257.75 188.84 262.85 183.77 267.79 C 177.88 274.58 170.70 280.12 164.87 286.99 C 160.29 287.42 155.87 285.96 151.33 285.72 L 150.25 285.07 C 154.36 281.22 157.93 276.85 162.18 273.15 C 169.08 265.47 177.01 258.76 183.67 250.85 C 188.65 248.89 189.48 242.64 194.26 240.40 C 197.84 238.70 199.58 234.98 202.42 232.42 C 208.77 226.43 215.15 220.44 221.08 214.01 Z" />
<path fill="#000000" opacity="1.00" d=" M 235.23 234.21 C 236.31 233.07 237.54 232.02 239.10 231.64 C 238.66 232.93 238.19 234.22 237.70 235.50 C 236.57 238.15 235.64 240.89 234.30 243.45 C 231.03 250.12 226.61 256.16 221.76 261.76 C 219.02 264.34 216.74 267.49 213.44 269.39 C 212.37 270.06 211.63 271.09 210.77 271.98 C 207.97 272.75 206.00 275.05 203.49 276.36 C 199.28 278.59 195.00 280.71 190.54 282.38 C 189.29 282.80 188.00 283.05 186.68 283.14 C 193.67 275.31 201.38 268.17 208.72 260.68 C 209.70 259.63 210.83 258.75 212.09 258.06 C 211.64 257.15 211.28 256.20 211.18 255.19 C 211.79 255.20 213.02 255.21 213.63 255.22 C 212.98 253.44 215.23 251.66 216.67 252.86 C 222.76 246.54 229.12 240.50 235.23 234.21 Z" />
</g>
</svg>
