<svg height='300px' width='300px'  fill="#000000" xmlns="http://www.w3.org/2000/svg" xmlns:xlink="http://www.w3.org/1999/xlink" version="1.1" x="0px" y="0px" viewBox="0 0 62.7 60" style="enable-background:new 0 0 62.7 60;" xml:space="preserve"><title>Snap Noun Project</title><path d="M31.5,37.3c-3.9,0-7-3.1-7-7s3.1-7,7-7s7,3.1,7,7S35.3,37.3,31.5,37.3z M31.5,26.1c-2.3,0-4.1,1.9-4.1,4.2  c0,2.3,1.9,4.1,4.2,4.1s4.1-1.9,4.1-4.1S33.7,26.1,31.5,26.1z"></path><path d="M33.7,18.7c0,0.8-0.6,1.4-1.4,1.4h-8.5c-4.3,0-5.6,1.4-5.6,5.6v5.9c0,4.3,1.2,5.4,4.5,5.6l-1.1-1.4c-0.5-0.6-0.4-1.5,0.2-2  s1.5-0.4,2,0.2l3,3.7l0.1,0.1c0.1,0.1,0.2,0.3,0.2,0.5c0,0.1,0,0.2,0,0.3c0,0.1,0,0.2,0,0.2c0,0.1,0,0.1,0,0.2  c-0.1,0.2-0.1,0.3-0.3,0.5l0,0l-3,3.5c-0.3,0.3-0.7,0.5-1.1,0.5c-0.3,0-0.7-0.1-0.9-0.3c-0.6-0.5-0.7-1.3-0.2-1.9c0,0,0,0,0.1-0.1  l1-1.2c-4.4-0.2-7.2-2-7.2-8.4v-5.9c0-5.8,2.6-8.4,8.4-8.4h8.5C33,17.3,33.6,17.9,33.7,18.7z"></path><path d="M29,41.3c0-0.8,0.6-1.4,1.4-1.4H39c4.3,0,5.6-1.4,5.6-5.6v-5.9c0-4.3-1.2-5.4-4.5-5.6l1.1,1.4c0.5,0.6,0.4,1.5-0.2,2  c-0.6,0.5-1.5,0.4-2-0.2l-3-3.7l-0.1-0.1c-0.1-0.1-0.2-0.3-0.2-0.5c0-0.1,0-0.2,0-0.3c0-0.1,0-0.2,0-0.2c0-0.1,0-0.1,0-0.2  c0.1-0.2,0.1-0.3,0.3-0.5l0,0l3-3.5c0.3-0.3,0.7-0.5,1.1-0.5c0.3,0,0.7,0.1,0.9,0.3c0.6,0.5,0.7,1.3,0.2,1.9c0,0,0,0-0.1,0.1l-1,1.1  c4.4,0.2,7.2,2,7.2,8.4v5.9c0,5.8-2.6,8.4-8.5,8.4h-8.5C29.6,42.7,29,42.1,29,41.3z"></path></svg>