<svg height='300px' width='300px'  fill="#000000" xmlns="http://www.w3.org/2000/svg" xmlns:xlink="http://www.w3.org/1999/xlink" version="1.1" x="0px" y="0px" viewBox="0 0 100 100" enable-background="new 0 0 100 100" xml:space="preserve"><path d="M95.37,33.666c-0.848-7.348-4.701-14.207-10.574-18.818C79.062,10.346,71.847,8.375,64.463,9.3  c-5.478,0.798-10.127,2.835-13.833,6.058c-1.289-0.996-3.914-2.938-5.368-3.747C33.337,4.988,18.645,7.677,10.33,17.996  C4.695,24.93,3.091,33.401,5.563,43.174c1.497,5.94,5.045,11.854,9.766,16.298c-0.118,2.565,0.906,5.043,2.854,6.861  c1.581,1.476,3.573,2.296,5.516,2.31c0.079,2.118,1.019,4.283,2.503,5.647c1.436,1.419,3.5,2.227,5.589,2.232  c0.092,2.11,1.127,4.51,2.635,5.896c1.458,1.337,3.976,2.708,6.383,2.878c0.825,3.493,2.35,5.39,5.004,6.277  c0.465,0.155,1.451,0.428,2.679,0.428c1.498,0,3.355-0.405,5.062-1.919c0.17-0.172,0.48-0.462,0.884-0.84  c3.354-3.141,6.526-6.322,7.651-8.72c2.153,0.896,5.201,0.922,7.008-0.479c2.36-1.689,3.052-4.28,2.738-6.611  c2.349,0.362,5.002-0.688,6.305-1.97c1.484-1.464,2.365-4.096,1.864-6.355c1.961,0.13,4.726-0.196,6.848-2.439  c2.085-2.2,1.74-5.047,1.323-6.428C93.707,49.818,96.325,41.624,95.37,33.666z M19.547,64.871c-1.528-1.426-2.313-3.364-2.207-5.361  l9.832-9.521c1.041-0.773,4.381-2.187,6.883,0.813c2.304,2.768,0.917,5.31,0.646,5.748L24.293,66.602  C22.679,66.782,20.927,66.158,19.547,64.871z M27.581,72.842c-1.223-1.123-1.971-3.107-1.865-4.834l10.369-10.013  c0.551-0.311,3.971-2.092,6.14,0.051c2.189,2.165,1.586,5.11,1.363,5.927L32.448,74.48C30.659,74.669,28.823,74.068,27.581,72.842z   M33.805,75.949l11.152-10.52c0.884-0.186,4.212-0.708,6.066,1.486c1.411,1.67,1.046,4.4,0.896,5.218L41.2,83.298  c-1.899-0.042-4.16-1.196-5.422-2.354C34.542,79.808,33.694,77.604,33.805,75.949z M53.07,87.783  c-0.429,0.4-0.758,0.709-0.891,0.848c-2.256,1.997-4.957,1.307-5.731,1.046c-1.989-0.665-3.088-2.162-3.735-5.068l10.755-11.199  c1.88-1.175,4.482,0.262,5.43,1.418c1.213,1.485,1.537,3.663,1.6,4.202C60.163,81.138,54.835,86.13,53.07,87.783z M85.399,61.292  c-2.082,2.201-5.104,1.935-6.505,1.656L60.83,44.724c-0.388-0.392-1.021-0.394-1.414-0.006c-0.393,0.389-0.396,1.022-0.007,1.415  l18.192,18.354c1.08,1.585,0.432,4.271-0.866,5.551c-1.17,1.154-4.123,2.072-5.8,0.979c-0.024-0.017-0.054-0.021-0.079-0.035  L52.426,52.092c-0.387-0.396-1.019-0.401-1.414-0.018c-0.396,0.386-0.403,1.02-0.018,1.414l18.562,19.022  c0.677,1.932,0.442,4.428-1.653,5.929c-1.329,1.029-3.953,0.854-5.462,0.022c-0.15-1.006-0.622-3.222-1.994-4.9  c-1.284-1.569-3.935-2.973-6.39-2.502c0.085-1.542-0.099-3.769-1.505-5.435c-2-2.365-4.988-2.513-6.799-2.338  c0.217-1.694,0.117-4.448-2.122-6.663c-2.026-2.003-4.57-1.81-6.38-1.275c0.295-1.65,0.054-3.77-1.658-5.826  c-3.16-3.792-7.616-2.679-9.683-1.086c-0.029,0.023-0.058,0.047-0.085,0.074l-9.458,9.159c-4.277-4.147-7.496-9.55-8.865-14.984  c-2.341-9.257-0.908-16.92,4.382-23.43c7.707-9.563,21.335-12.042,32.406-5.895c1.289,0.717,3.607,2.431,4.866,3.391L33.313,32.26  c-0.099,0.083-2.42,2.057-2.44,4.759c-0.011,1.572,0.734,3.017,2.215,4.293c4.624,3.986,11.625,3.482,16.645-1.199  c2.341-2.18,8.296-8.022,10.356-10.046l26.103,26.538C86.426,57.208,86.995,59.608,85.399,61.292z M60.814,27.951  c-0.187-0.189-0.439-0.297-0.705-0.299h-0.008c-0.263,0-0.515,0.103-0.702,0.288c-0.081,0.081-8.212,8.085-11.03,10.709  c-4.26,3.974-10.138,4.455-13.976,1.148c-1.013-0.874-1.525-1.8-1.521-2.755c0.007-1.771,1.709-3.237,1.781-3.301l16.708-16.353  c3.501-3.27,8.006-5.325,13.369-6.106c6.831-0.855,13.518,0.969,18.829,5.139c5.456,4.283,9.036,10.652,9.823,17.479  c0.87,7.249-1.457,14.718-6.402,20.654L60.814,27.951z"></path></svg>