<?xml version="1.0" encoding="UTF-8" ?>
<!DOCTYPE svg PUBLIC "-//W3C//DTD SVG 1.1//EN" "http://www.w3.org/Graphics/SVG/1.1/DTD/svg11.dtd">
<svg width="512pt" height="512pt" viewBox="0 0 512 512" version="1.1" xmlns="http://www.w3.org/2000/svg">
<g id="#000000ff">
<path fill="#000000" opacity="1.00" d=" M 245.56 7.69 C 263.43 5.32 282.08 9.14 297.45 18.59 C 312.68 27.81 324.70 42.24 330.89 58.94 C 337.76 77.18 337.61 97.96 330.46 116.10 C 323.18 134.88 308.46 150.60 290.25 159.20 C 275.64 166.15 258.90 168.50 242.95 165.81 C 223.28 162.66 205.03 151.75 192.87 135.99 C 181.15 121.09 175.15 101.87 176.17 82.95 C 176.97 65.00 184.14 47.43 196.10 34.03 C 208.70 19.68 226.61 10.10 245.56 7.69 Z" />
<path fill="#000000" opacity="1.00" d=" M 44.19 42.14 C 60.58 36.73 79.14 38.37 94.29 46.63 C 107.26 53.54 117.65 65.12 123.20 78.72 C 128.51 91.65 129.38 106.33 125.70 119.81 C 121.40 135.83 110.52 149.96 96.15 158.24 C 84.41 165.13 70.42 168.05 56.90 166.51 C 40.28 164.74 24.53 156.08 14.14 142.99 C 5.30 132.16 0.45 118.36 0.00 104.42 L 0.00 101.62 C 0.35 92.79 2.21 83.97 6.00 75.96 C 13.35 60.07 27.50 47.47 44.19 42.14 Z" />
<path fill="#000000" opacity="1.00" d=" M 483.43 188.34 C 487.77 185.13 492.37 181.72 497.89 181.06 C 501.88 180.47 506.13 182.21 508.42 185.54 C 511.10 189.30 511.72 194.04 512.00 198.53 L 512.00 487.94 C 511.66 492.27 510.98 496.84 508.36 500.44 C 506.26 503.42 502.56 505.17 498.93 504.92 C 493.50 504.68 488.84 501.52 484.61 498.41 C 460.24 480.12 435.87 461.83 411.49 443.55 C 398.98 434.38 390.66 420.38 386.32 405.66 C 384.06 398.33 383.86 390.61 383.99 383.00 C 384.01 354.33 383.99 325.65 384.00 296.98 C 383.91 282.47 389.48 268.39 397.64 256.58 C 402.05 250.12 407.87 244.79 414.21 240.28 C 437.29 222.98 460.37 205.67 483.43 188.34 Z" />
<path fill="#000000" opacity="1.00" d=" M 18.32 202.11 C 24.72 198.91 32.02 198.82 39.02 198.93 C 132.00 198.95 224.99 198.93 317.97 198.94 C 327.23 198.67 336.69 202.03 343.05 208.89 C 348.79 214.74 351.75 222.82 352.01 230.94 C 277.34 230.95 202.67 230.93 128.01 230.95 C 127.99 241.61 128.00 252.27 128.00 262.94 C 202.67 262.94 277.33 262.93 351.99 262.94 C 351.99 326.64 352.03 390.33 351.97 454.02 C 352.14 463.90 347.72 473.77 339.92 479.89 C 333.83 484.90 325.86 487.08 318.06 486.97 C 223.35 486.98 128.64 486.98 33.92 486.96 C 25.89 487.09 17.68 484.74 11.53 479.44 C 4.40 473.58 0.30 464.55 0.00 455.38 L 0.00 230.61 C 0.21 218.66 7.42 207.13 18.32 202.11 M 89.47 359.70 C 77.84 362.02 67.99 371.38 65.13 382.89 C 61.80 395.05 66.57 408.85 76.68 416.36 C 86.32 423.86 100.37 424.95 111.07 419.09 C 121.59 413.59 128.40 401.83 127.88 389.96 C 127.66 378.76 120.97 368.02 111.07 362.82 C 104.53 359.26 96.75 358.26 89.47 359.70 Z" />
</g>
</svg>
