<svg width="686pt" height="464pt" viewBox="0 0 686 464" version="1.1" xmlns="http://www.w3.org/2000/svg">
<path d=" M 5.51 1.82 C 6.05 1.48 6.61 1.16 7.17 0.87 C 9.46 0.89 11.74 0.97 14.03 1.00 C 185.04 1.00 356.05 1.00 527.06 1.00 C 577.64 0.91 628.22 1.19 678.79 0.86 C 679.35 1.15 679.91 1.47 680.46 1.81 C 682.10 3.61 683.70 5.44 685.23 7.34 L 685.63 8.06 C 684.81 9.53 684.66 11.06 685.17 12.64 L 684.76 13.22 C 684.68 13.34 684.52 13.58 684.43 13.70 L 684.13 14.14 C 682.85 14.82 682.09 15.87 681.87 17.29 C 681.51 17.43 680.79 17.71 680.43 17.84 C 630.62 18.21 580.79 17.89 530.98 18.00 C 357.31 18.00 183.65 18.00 9.99 18.00 C 8.52 17.99 7.05 17.93 5.58 17.84 C 5.21 17.70 4.47 17.42 4.11 17.27 C 3.89 15.85 3.14 14.80 1.86 14.12 L 1.56 13.69 C 1.48 13.58 1.32 13.35 1.24 13.24 L 0.83 12.68 C 1.34 11.10 1.18 9.58 0.36 8.12 L 0.76 7.38 C 2.28 5.47 3.87 3.62 5.51 1.82 Z" />
<path d=" M 5.29 225.42 C 5.44 225.08 5.76 224.40 5.91 224.06 C 6.28 224.05 7.01 224.03 7.38 224.02 C 231.12 223.98 454.86 223.99 678.60 224.01 C 678.97 224.02 679.71 224.04 680.08 224.05 C 680.24 224.40 680.55 225.08 680.71 225.42 C 681.18 226.86 682.39 227.94 683.87 228.29 L 683.81 229.11 C 684.06 229.57 684.56 230.49 684.82 230.95 C 684.81 231.47 684.80 232.51 684.80 233.03 C 684.56 233.50 684.09 234.43 683.85 234.90 L 683.94 235.74 C 682.04 236.42 680.61 237.93 679.83 239.76 C 679.52 239.79 678.91 239.85 678.60 239.87 C 627.43 240.17 576.24 239.91 525.05 240.00 C 353.71 240.01 182.37 239.99 11.03 240.01 C 10.12 239.98 8.31 239.91 7.40 239.88 C 7.09 239.85 6.47 239.79 6.16 239.76 C 5.39 237.92 3.96 236.43 2.07 235.74 L 2.15 234.93 C 1.92 234.47 1.44 233.54 1.21 233.07 C 1.21 232.53 1.20 231.45 1.20 230.90 C 1.45 230.44 1.94 229.52 2.19 229.06 L 2.12 228.29 C 3.59 227.94 4.81 226.86 5.29 225.42 Z" />
<path d=" M 4.11 446.72 C 4.47 446.58 5.19 446.30 5.56 446.16 C 10.36 445.87 15.17 446.01 19.98 446.00 C 190.65 446.00 361.33 446.00 532.01 446.00 C 581.47 446.10 630.93 445.81 680.39 446.14 C 680.77 446.29 681.54 446.59 681.92 446.74 C 682.12 448.15 682.86 449.20 684.15 449.89 L 684.44 450.31 C 684.52 450.43 684.68 450.65 684.76 450.77 L 685.17 451.32 C 684.64 452.91 684.81 454.44 685.67 455.92 L 685.26 456.70 C 683.49 459.14 681.32 461.28 678.77 462.90 L 678.06 463.12 C 512.72 462.85 347.37 463.08 182.02 463.00 C 123.75 463.09 65.47 462.82 7.20 463.14 C 6.60 462.82 6.02 462.49 5.45 462.13 C 3.83 460.35 2.27 458.52 0.77 456.64 L 0.37 455.88 C 1.19 454.41 1.34 452.89 0.83 451.32 L 1.24 450.76 C 1.32 450.65 1.48 450.42 1.57 450.31 L 1.86 449.88 C 3.14 449.19 3.89 448.14 4.11 446.72 Z" />
</svg>
