<svg width="432pt" height="380pt" viewBox="0 0 432 380" version="1.1" xmlns="http://www.w3.org/2000/svg">
<path d=" M 85.68 19.87 C 85.67 9.70 94.74 0.54 105.00 0.83 C 207.32 0.80 309.66 0.79 411.98 0.83 C 422.18 0.46 431.10 9.24 431.63 19.31 L 432.00 17.09 L 432.00 207.45 C 431.21 212.64 429.55 217.99 425.56 221.64 C 421.97 225.10 417.02 227.09 412.03 227.03 C 389.73 227.11 367.44 226.99 345.14 227.08 C 345.03 249.72 345.12 272.36 345.10 294.99 C 345.06 299.77 345.46 304.85 343.23 309.25 C 340.12 316.19 332.61 320.71 325.05 320.46 C 279.70 320.43 234.35 320.48 189.00 320.44 C 177.76 320.01 166.39 323.63 157.39 330.33 C 139.61 345.27 121.95 360.36 104.18 375.31 C 101.06 378.02 96.59 380.07 92.49 378.36 C 88.63 376.52 87.27 372.02 87.23 368.04 C 87.02 356.67 87.33 345.30 87.10 333.94 C 86.98 326.66 80.27 320.48 73.08 320.51 C 58.05 320.36 43.01 320.50 27.97 320.45 C 22.18 320.36 15.95 321.21 10.67 318.22 C 4.82 315.34 1.36 309.27 0.00 303.08 L 0.00 100.24 C 0.69 97.63 1.27 94.94 2.53 92.53 C 5.72 86.10 12.86 81.99 20.00 82.11 C 41.88 82.10 63.75 82.15 85.63 82.09 C 85.69 61.35 85.56 40.61 85.68 19.87 M 90.69 20.10 C 90.66 40.81 90.70 61.53 90.67 82.24 C 167.12 82.20 243.57 82.25 320.02 82.22 C 325.65 82.07 331.83 81.97 336.54 85.57 C 342.27 89.35 345.31 96.19 345.04 102.96 C 345.14 142.62 345.03 182.28 345.10 221.94 C 366.07 222.05 387.04 221.94 408.01 222.00 C 410.66 221.97 413.35 222.11 415.96 221.49 C 422.19 219.75 426.89 213.51 426.48 206.97 C 426.50 144.98 426.48 82.99 426.49 21.00 C 426.86 15.09 423.19 9.22 417.71 7.00 C 414.02 5.40 409.93 5.79 406.02 5.78 C 305.68 5.79 205.34 5.77 105.00 5.79 C 97.40 5.71 90.62 12.51 90.69 20.10 M 16.53 87.70 C 10.09 89.07 5.24 95.39 5.47 101.96 C 5.40 167.99 5.47 234.03 5.44 300.06 C 4.90 307.68 11.26 315.22 19.06 315.13 C 37.05 315.30 55.04 315.11 73.02 315.22 C 82.67 315.32 91.80 323.26 92.21 333.09 C 92.53 344.72 92.13 356.37 92.40 368.01 C 92.56 370.27 93.05 373.63 95.87 373.98 C 97.78 373.45 99.46 372.34 101.02 371.16 C 117.73 357.01 134.48 342.90 151.15 328.71 C 161.72 319.46 175.99 314.59 190.01 315.19 C 235.30 315.19 280.59 315.21 325.88 315.18 C 333.44 315.36 339.93 308.45 339.95 301.03 C 339.98 234.66 339.97 168.29 339.96 101.92 C 340.19 93.93 333.00 86.87 325.01 87.26 C 225.34 87.19 125.66 87.26 25.98 87.23 C 22.83 87.25 19.63 87.01 16.53 87.70 Z" />
<path d=" M 66.08 155.07 C 66.72 153.44 68.12 152.17 69.98 152.46 C 138.33 152.43 206.68 152.47 275.04 152.44 C 276.42 152.50 278.43 152.37 279.09 153.94 C 280.28 155.83 278.15 158.24 276.08 157.81 C 207.01 157.81 137.94 157.84 68.87 157.79 C 67.31 157.92 66.91 156.01 66.08 155.07 Z" />
<path d=" M 67.26 195.95 C 68.82 195.80 70.38 195.68 71.95 195.66 C 139.91 195.71 207.87 195.65 275.83 195.69 C 276.95 195.85 278.75 195.64 279.07 197.10 C 280.35 198.89 278.12 201.54 276.08 200.99 C 207.36 201.01 138.64 200.99 69.92 201.00 C 68.02 201.43 66.85 199.75 66.06 198.36 C 66.36 197.76 66.96 196.56 67.26 195.95 Z" />
<path d=" M 66.69 239.70 C 67.66 238.35 69.60 239.15 71.00 238.89 C 123.13 238.90 175.25 238.93 227.37 238.87 C 228.81 240.46 229.16 242.54 227.38 244.04 C 173.98 244.02 120.57 243.99 67.17 244.06 C 66.24 242.90 65.17 240.85 66.69 239.70 Z" />
</svg>
