<?xml version="1.0" encoding="UTF-8" ?>
<!DOCTYPE svg PUBLIC "-//W3C//DTD SVG 1.1//EN" "http://www.w3.org/Graphics/SVG/1.1/DTD/svg11.dtd">
<svg width="170pt" height="170pt" viewBox="0 0 170 170" version="1.1" xmlns="http://www.w3.org/2000/svg">
<g id="#000000ff">
<path fill="#000000" opacity="1.00" d=" M 16.99 0.00 L 152.44 0.00 C 157.03 0.88 161.81 2.33 165.03 5.94 C 167.66 8.58 169.05 12.12 170.00 15.65 L 170.00 115.59 C 169.03 123.33 162.87 130.19 155.05 131.32 C 149.93 131.92 144.75 131.44 139.61 131.61 C 139.65 144.40 139.43 157.21 139.79 170.00 L 139.33 170.00 C 126.82 156.95 113.73 144.42 100.97 131.60 C 73.01 131.56 45.05 131.66 17.09 131.55 C 8.44 131.37 1.03 124.13 0.00 115.64 L 0.00 15.82 C 1.34 7.34 8.67 1.15 16.99 0.00 M 8.01 18.99 C 8.02 50.66 7.95 82.34 8.04 114.01 C 8.02 119.20 12.75 123.72 17.93 123.57 C 46.64 123.60 75.35 123.63 104.06 123.55 C 113.28 132.46 122.12 141.76 131.37 150.64 C 131.48 141.61 131.24 132.57 131.49 123.54 C 138.53 123.60 145.58 123.66 152.62 123.53 C 157.92 123.32 162.17 118.26 161.79 113.03 C 161.78 81.35 161.84 49.66 161.76 17.97 C 161.75 12.87 157.18 8.36 152.08 8.42 C 107.42 8.36 62.74 8.38 18.07 8.41 C 12.44 8.19 7.56 13.39 8.01 18.99 Z" />
</g>
</svg>
