<svg width="256pt" height="256pt" viewBox="0 0 256 256" version="1.1" xmlns="http://www.w3.org/2000/svg">
<path d=" M 109.50 1.81 C 131.90 -1.47 155.14 1.47 176.07 10.06 C 199.83 19.79 220.54 36.84 234.48 58.41 C 248.57 79.74 255.72 105.46 255.29 130.98 C 254.63 150.37 249.84 169.69 240.77 186.89 C 227.87 211.82 206.44 232.17 180.91 243.83 C 161.09 252.95 138.87 256.90 117.13 255.04 C 92.17 252.95 67.87 243.34 48.33 227.65 C 25.84 209.73 9.55 184.06 3.42 155.92 C 2.55 149.58 0.65 143.40 0.53 136.95 C 0.28 127.47 -0.04 117.87 1.80 108.51 C 2.67 105.38 3.54 102.24 3.64 98.97 C 9.21 75.02 21.90 52.71 39.84 35.85 C 58.68 17.51 83.53 5.64 109.50 1.81 M 27.36 57.03 C 27.51 61.79 29.15 67.90 33.77 70.13 C 36.21 66.56 38.26 62.49 42.03 60.11 C 47.97 56.47 53.76 51.89 61.04 51.54 C 65.73 51.52 67.03 45.59 71.30 44.62 C 74.64 44.07 76.86 47.24 79.17 49.07 C 81.35 45.95 81.19 41.99 81.69 38.38 C 82.40 34.94 83.63 31.60 83.68 28.05 C 80.14 28.96 77.81 32.03 74.54 33.47 C 72.62 33.91 69.93 34.27 68.96 32.06 C 67.75 29.32 68.70 25.89 70.87 23.88 C 74.06 20.65 78.66 19.50 82.97 18.67 C 87.36 17.73 91.52 19.88 95.88 19.94 C 97.51 17.12 100.19 13.82 103.87 14.73 C 108.26 16.73 106.25 22.21 106.46 25.91 C 110.24 23.98 113.47 21.03 115.38 17.20 C 117.14 13.57 121.22 12.36 124.49 10.53 C 124.62 8.73 124.78 6.93 124.94 5.12 C 86.56 5.29 49.25 25.68 27.36 57.03 M 129.61 5.09 C 129.37 7.56 129.19 10.07 128.36 12.43 C 126.98 14.80 124.16 15.58 121.94 16.91 C 119.20 18.20 118.47 21.45 116.56 23.57 C 113.71 26.81 110.04 29.64 105.78 30.64 C 104.26 30.68 102.01 31.45 101.24 29.59 C 101.20 26.19 102.56 22.94 102.37 19.53 C 100.35 21.26 98.88 23.93 96.03 24.39 C 92.52 24.62 89.18 23.19 85.71 22.87 C 90.65 29.32 85.51 36.89 85.50 43.92 C 85.17 47.60 83.74 53.27 79.01 52.82 C 75.93 53.40 74.39 50.25 72.00 49.03 C 70.21 50.56 68.86 52.52 67.01 53.98 C 63.00 56.75 57.60 55.60 53.53 58.28 C 48.78 61.51 42.77 63.61 39.94 68.97 C 38.29 71.77 35.76 75.21 32.03 74.45 C 27.06 72.66 25.63 67.09 23.23 62.96 C 19.63 69.31 16.01 75.71 13.45 82.57 C 12.49 84.18 13.72 87.09 15.79 86.69 C 19.09 86.09 22.37 84.72 25.76 85.57 C 31.80 87.05 37.50 90.94 40.58 96.40 C 42.53 99.06 40.29 103.28 36.91 102.76 C 31.78 103.33 27.92 99.38 23.33 97.92 C 21.72 100.94 20.31 104.16 20.25 107.64 C 23.20 110.17 26.89 111.48 30.55 112.59 C 36.12 114.32 40.54 118.39 44.22 122.76 C 47.26 126.38 50.69 129.65 53.61 133.37 C 56.43 137.25 58.30 141.74 59.84 146.26 C 67.89 149.92 77.89 148.09 84.94 154.08 C 90.30 158.23 91.19 165.77 89.48 171.94 C 87.11 180.81 88.95 191.21 82.70 198.71 C 77.24 204.30 72.02 210.16 67.40 216.47 C 64.85 221.14 62.99 226.30 58.89 229.94 C 87.05 249.18 123.34 255.69 156.46 247.65 C 182.37 241.49 206.06 226.51 222.89 205.89 C 240.11 184.95 250.31 158.18 250.67 131.03 C 251.42 109.97 246.25 88.80 236.33 70.24 C 235.60 70.71 234.15 71.64 233.42 72.11 C 234.11 74.98 234.61 78.08 236.58 80.40 C 239.85 84.13 241.44 89.16 241.61 94.05 C 241.68 97.30 239.92 101.87 235.99 101.54 C 232.45 100.94 230.86 97.46 229.40 94.62 C 228.31 92.18 225.53 91.35 223.07 91.23 C 227.06 97.34 232.08 102.72 236.38 108.61 C 238.33 111.70 243.17 112.17 243.85 116.13 C 244.81 123.89 241.65 131.40 240.72 139.05 C 240.29 144.14 236.64 148.16 235.38 153.00 C 234.49 157.23 237.74 160.87 237.65 165.04 C 237.63 171.62 235.48 178.23 231.29 183.34 C 228.39 186.66 228.11 191.26 225.93 194.97 C 220.84 204.64 212.51 213.28 201.78 216.36 C 198.54 216.73 194.86 217.67 191.85 216.01 C 189.53 213.21 190.60 209.29 190.55 205.98 C 191.41 199.30 187.60 192.80 189.38 186.18 C 190.69 181.19 192.42 176.30 195.18 171.92 C 195.91 166.19 195.08 158.51 188.76 156.29 C 188.23 153.32 188.47 149.09 185.12 147.78 C 181.48 146.31 177.39 144.02 177.18 139.57 C 171.09 138.51 164.80 137.72 158.67 139.01 C 155.62 139.39 152.57 140.91 149.51 139.85 C 144.63 139.23 139.43 137.83 135.98 134.10 C 133.94 131.94 135.33 128.82 134.36 126.35 C 131.35 121.83 132.02 116.14 131.75 110.98 C 131.42 107.00 132.98 103.27 134.88 99.88 C 136.72 96.69 134.67 92.84 136.13 89.56 C 137.43 85.86 141.13 83.89 144.69 82.86 C 149.10 81.70 151.61 77.29 156.03 76.09 C 162.65 74.11 168.84 69.94 176.02 70.55 C 182.21 70.37 187.69 75.11 193.94 73.51 C 197.88 72.43 201.51 70.45 205.27 68.88 C 204.96 66.98 203.74 65.42 201.92 64.71 C 196.52 63.82 191.31 66.31 185.92 66.15 C 181.93 65.81 178.87 63.02 175.25 61.64 C 171.74 60.75 167.80 60.77 164.50 62.39 C 159.89 64.43 159.66 70.96 154.83 72.73 C 149.97 74.24 144.37 75.62 139.52 73.41 C 135.45 71.08 134.75 65.68 135.55 61.46 C 138.10 56.98 144.37 57.33 147.66 53.58 C 150.68 50.34 149.29 45.28 151.70 41.70 C 153.70 38.28 158.08 37.95 161.21 36.05 C 157.52 32.79 151.95 32.29 148.98 28.13 C 146.50 24.41 148.27 19.08 152.35 17.36 C 156.31 15.60 160.55 13.95 162.77 9.92 C 151.95 7.01 140.85 5.00 129.61 5.09 M 167.07 11.37 C 165.15 14.52 162.79 17.72 159.25 19.13 C 156.89 20.23 154.23 21.00 152.41 22.98 C 151.64 27.20 156.75 28.05 159.53 29.65 C 162.71 30.81 166.64 33.97 164.68 37.74 C 163.34 42.36 156.57 40.94 154.97 45.21 C 154.00 49.19 153.92 53.77 150.84 56.86 C 147.71 59.89 143.43 61.30 139.47 62.91 C 139.64 65.12 140.18 67.27 140.75 69.40 C 145.94 70.07 153.58 70.90 156.09 65.04 C 159.32 57.68 168.65 54.97 175.93 57.20 C 179.23 58.00 181.87 60.28 185.01 61.46 C 190.41 62.17 195.63 59.56 201.05 60.22 C 205.98 60.31 211.17 65.35 209.38 70.45 C 207.70 73.25 204.35 74.15 201.56 75.43 C 196.80 77.48 191.37 79.70 186.22 77.61 C 179.93 75.05 172.49 73.84 166.20 77.03 C 161.66 79.24 156.24 79.83 152.54 83.53 C 149.32 86.58 144.83 87.46 140.84 89.05 C 139.55 92.94 141.15 97.22 139.28 100.96 C 138.24 103.59 136.26 105.98 136.37 108.95 C 136.30 112.27 136.45 115.59 136.55 118.91 C 136.54 123.42 140.14 127.04 139.48 131.64 C 142.52 133.39 145.76 134.88 149.19 135.69 C 152.57 135.57 156.12 135.88 159.32 134.56 C 162.08 133.74 165.01 133.42 167.87 133.93 C 171.85 134.79 175.99 134.58 179.90 135.85 C 180.98 137.57 181.57 139.55 182.72 141.23 C 185.19 143.13 188.08 144.43 190.53 146.38 C 192.55 148.45 191.77 152.04 194.00 153.93 C 199.90 158.46 200.32 166.82 199.35 173.57 C 196.77 178.09 194.64 182.87 193.54 187.99 C 192.71 194.08 195.83 199.90 195.13 205.99 C 194.90 208.17 194.70 210.35 194.58 212.54 C 197.47 212.43 200.47 212.52 203.14 211.23 C 213.72 206.53 221.65 196.61 224.75 185.56 C 226.02 182.14 228.79 179.60 230.48 176.42 C 232.37 172.93 232.94 168.92 233.31 165.02 C 232.70 161.28 230.49 157.85 230.63 153.97 C 230.93 151.03 232.13 148.27 233.71 145.80 C 236.53 141.27 236.35 135.76 237.80 130.77 C 239.12 126.25 239.48 121.54 239.64 116.85 C 233.08 113.78 229.83 107.01 225.33 101.74 C 222.95 98.43 218.84 95.62 219.07 91.10 C 218.92 88.24 222.06 86.08 224.72 86.77 C 227.89 87.52 231.48 88.76 233.04 91.87 C 234.15 93.51 234.51 96.17 236.94 96.26 C 237.07 93.31 236.90 90.28 235.74 87.53 C 234.67 84.46 231.73 82.50 230.82 79.35 C 229.38 76.21 229.06 72.76 229.40 69.35 C 230.90 68.38 232.43 67.47 233.95 66.53 C 232.44 62.82 229.94 59.63 227.68 56.35 C 212.81 35.54 191.28 19.60 167.07 11.37 M 10.39 89.87 C 9.91 92.02 8.66 94.29 9.65 96.49 C 10.95 99.39 10.28 102.54 9.48 105.47 C 8.60 108.21 9.94 110.94 10.40 113.63 C 13.37 117.42 19.84 118.47 20.03 124.13 C 19.65 130.10 17.92 136.00 18.30 142.03 C 18.79 145.05 20.17 147.91 20.02 151.04 C 19.63 154.66 22.07 157.54 23.30 160.73 C 25.78 166.10 26.38 172.27 29.96 177.12 C 29.93 181.55 32.21 185.35 33.73 189.38 C 37.13 192.71 39.75 196.91 40.56 201.67 C 41.90 206.29 40.56 211.11 41.26 215.78 C 44.99 219.98 49.66 223.41 54.17 226.79 C 58.47 225.96 60.34 221.42 61.99 217.81 C 64.11 212.69 68.20 208.84 71.48 204.50 C 74.48 200.79 78.62 198.03 81.00 193.84 C 84.10 187.69 83.22 180.58 84.74 174.03 C 85.63 170.01 86.56 165.73 85.41 161.67 C 83.30 156.27 77.27 154.04 71.92 153.48 C 67.68 153.20 63.57 151.91 59.77 150.05 C 56.20 148.10 55.12 143.92 53.32 140.57 C 50.35 134.85 45.15 130.84 41.27 125.81 C 39.01 123.08 36.55 120.44 33.48 118.60 C 30.44 116.59 26.76 116.02 23.43 114.65 C 20.81 113.79 19.39 111.20 17.90 109.08 C 15.87 106.36 17.53 103.03 17.93 100.07 C 18.59 96.89 21.15 92.79 24.93 93.67 C 28.87 95.06 31.95 98.65 36.37 98.65 C 34.11 93.20 27.82 89.43 21.98 89.59 C 18.18 90.84 14.19 91.52 10.39 89.87 M 5.24 113.74 C 3.06 126.27 4.05 139.19 6.78 151.55 C 10.66 172.08 20.13 191.45 33.57 207.42 C 34.55 208.54 35.66 209.56 36.89 210.40 C 37.16 205.50 37.09 200.08 34.01 195.97 C 32.61 193.81 30.16 192.35 29.50 189.74 C 28.33 185.88 26.09 182.38 25.74 178.29 C 22.13 172.03 21.44 164.56 17.74 158.31 C 15.89 155.52 15.85 152.09 15.65 148.88 C 15.49 145.29 13.33 141.95 14.15 138.30 C 14.56 132.58 15.90 126.97 15.86 121.22 C 13.33 119.41 10.75 117.67 8.65 115.34 C 7.83 114.24 6.47 114.07 5.24 113.74 Z" />
</svg>
