<svg width="260pt" height="260pt" viewBox="0 0 260 260" version="1.1" xmlns="http://www.w3.org/2000/svg">
<path d=" M 110.63 4.83 C 115.12 -1.30 123.48 1.17 129.94 0.69 C 135.83 1.26 142.89 -1.06 147.75 3.30 C 152.24 7.13 152.81 13.36 154.52 18.64 C 155.97 22.94 155.77 28.22 159.33 31.49 C 162.80 33.89 167.19 34.37 170.84 36.47 C 174.46 38.08 178.44 41.07 182.53 39.17 C 185.48 37.55 188.26 35.63 191.27 34.12 C 196.81 31.19 202.42 26.23 209.15 28.11 C 215.01 30.33 218.43 36.03 223.02 39.98 C 226.58 43.85 231.84 47.24 232.22 52.99 C 232.77 58.25 229.15 62.52 227.01 66.98 C 224.79 71.64 220.51 75.48 220.37 80.93 C 220.75 83.66 222.12 86.11 223.29 88.56 C 225.39 92.73 226.55 97.29 228.50 101.53 C 234.86 104.60 242.03 105.17 248.63 107.57 C 253.93 108.81 259.48 113.07 259.27 119.01 C 259.33 126.34 259.36 133.67 259.25 141.00 C 259.57 145.30 256.25 148.59 253.02 150.86 C 246.94 153.29 240.52 154.76 234.17 156.28 C 230.78 157.05 227.57 159.38 226.64 162.86 C 225.38 166.96 223.68 170.90 221.73 174.73 C 220.23 177.39 219.53 180.89 221.34 183.59 C 225.03 189.32 228.38 195.27 231.36 201.40 C 232.95 205.11 232.53 209.71 229.84 212.81 C 224.56 218.84 218.87 224.59 212.81 229.84 C 209.41 232.80 204.19 233.02 200.33 230.85 C 195.75 228.35 191.02 226.10 186.66 223.21 C 183.84 221.36 180.33 219.52 176.91 220.89 C 172.44 222.68 168.19 225.01 163.56 226.37 C 160.80 227.12 158.12 228.80 156.92 231.49 C 155.15 238.71 153.64 246.06 150.88 252.99 C 148.63 256.27 145.27 259.58 140.95 259.26 C 133.66 259.35 126.36 259.34 119.08 259.26 C 114.48 259.49 110.82 255.97 108.80 252.19 C 106.21 245.66 105.06 238.66 102.99 231.98 C 101.11 226.40 94.47 226.32 90.00 223.97 C 85.89 222.41 81.57 218.70 77.01 220.97 C 70.94 224.58 65.01 228.49 58.54 231.38 C 54.82 232.93 50.24 232.50 47.11 229.87 C 43.08 226.57 39.73 222.55 35.97 218.97 C 32.58 215.56 28.01 212.20 27.78 206.95 C 27.28 200.97 31.63 196.30 34.06 191.22 C 34.96 189.48 36.02 187.81 37.47 186.47 C 37.44 186.25 37.39 185.80 37.36 185.58 C 38.89 183.10 40.31 180.04 39.20 177.12 C 37.81 172.96 35.38 169.23 34.11 165.02 C 33.05 161.81 31.80 157.85 28.06 156.94 C 21.08 154.86 13.79 153.69 7.04 150.88 C 4.48 149.23 2.14 146.80 1.03 143.94 C 0.27 137.67 0.90 131.33 0.69 125.03 C 0.77 120.72 -0.02 115.73 3.14 112.25 C 7.18 107.61 13.76 107.12 19.27 105.31 C 24.17 103.86 31.15 103.80 32.96 97.93 C 34.70 92.36 37.58 87.25 39.61 81.81 C 40.56 76.72 35.94 73.06 34.09 68.75 C 31.08 63.01 25.83 56.99 28.39 50.08 C 31.10 44.56 36.39 40.99 40.41 36.50 C 44.05 33.03 47.47 28.21 52.91 27.82 C 58.25 27.02 62.43 31.03 67.02 33.00 C 72.36 35.53 77.61 41.66 84.05 38.87 C 89.70 36.04 95.57 33.72 101.52 31.57 C 105.69 23.09 105.35 12.83 110.63 4.83 M 113.21 9.17 C 110.45 16.18 109.34 23.72 106.95 30.84 C 104.76 36.82 97.96 37.63 92.85 39.83 C 88.60 41.37 84.71 44.63 79.93 44.11 C 74.85 44.07 70.96 40.50 66.72 38.21 C 63.29 36.39 60.01 34.27 56.47 32.68 C 53.77 31.52 50.71 32.78 48.82 34.82 C 44.11 39.48 39.45 44.20 34.74 48.87 C 32.53 50.91 31.41 54.28 32.93 57.06 C 35.81 62.74 39.04 68.23 42.39 73.64 C 44.83 77.51 44.84 82.66 42.68 86.66 C 40.42 90.98 38.69 95.53 37.12 100.15 C 35.90 103.96 32.37 106.48 28.71 107.66 C 21.98 109.59 14.96 110.77 8.52 113.57 C 4.56 116.02 5.06 121.09 5.11 125.09 C 5.38 131.33 4.53 137.65 5.73 143.83 C 6.55 143.94 8.20 144.17 9.02 144.29 C 10.61 145.91 11.95 148.09 14.31 148.63 C 19.54 150.18 24.95 151.09 30.15 152.75 C 33.99 154.07 36.67 157.47 37.70 161.32 C 39.15 165.70 41.01 169.92 43.00 174.07 C 44.95 178.18 44.23 183.14 41.99 186.98 C 38.87 192.23 35.64 197.45 32.97 202.94 C 31.52 205.47 32.30 208.70 34.37 210.64 C 39.18 215.52 44.01 220.38 48.84 225.23 C 50.73 226.97 53.54 228.57 56.12 227.43 C 62.98 224.50 69.00 219.96 75.65 216.63 C 80.47 214.50 85.68 216.48 89.96 218.91 C 95.13 221.87 102.19 221.95 105.73 227.33 C 108.67 231.87 108.89 237.51 110.59 242.55 C 111.91 246.27 112.05 250.99 115.54 253.47 C 117.65 255.18 120.52 254.75 123.04 254.87 C 128.71 254.79 134.38 254.95 140.05 254.82 C 142.80 254.86 145.59 253.47 146.73 250.88 C 149.63 243.88 150.60 236.25 153.07 229.12 C 154.64 224.95 158.90 222.95 162.88 221.74 C 166.96 220.41 170.81 218.51 174.71 216.76 C 178.69 215.02 183.34 215.95 187.02 217.99 C 192.32 221.03 197.42 224.45 202.98 227.03 C 205.49 228.39 208.67 227.73 210.61 225.69 C 215.67 220.71 220.66 215.66 225.68 210.65 C 227.79 208.71 228.31 205.40 227.03 202.86 C 224.27 197.16 220.77 191.84 217.58 186.37 C 215.25 182.48 215.14 177.40 217.30 173.41 C 219.55 169.06 221.14 164.44 222.87 159.88 C 224.04 156.62 226.82 154.21 229.94 152.87 C 237.61 149.96 246.33 149.80 253.33 145.18 C 254.17 143.25 254.95 141.23 254.86 139.08 C 254.85 132.71 254.91 126.34 254.84 119.97 C 254.93 116.92 252.98 113.91 250.08 112.90 C 243.70 110.65 237.06 109.21 230.53 107.47 C 226.77 106.42 223.80 103.31 222.67 99.60 C 221.22 95.14 219.40 90.82 217.30 86.63 C 215.19 82.58 215.50 77.56 217.70 73.61 C 220.87 67.88 224.61 62.44 227.31 56.46 C 228.57 53.78 227.16 50.77 225.23 48.84 C 220.37 44.02 215.53 39.16 210.64 34.37 C 208.71 32.31 205.52 31.52 202.99 32.95 C 197.28 35.78 191.82 39.11 186.37 42.41 C 182.50 44.87 177.35 44.83 173.35 42.69 C 169.02 40.47 164.45 38.81 159.88 37.16 C 155.79 35.77 153.09 31.94 152.08 27.87 C 150.52 21.86 149.19 15.76 147.05 9.91 C 146.06 7.02 143.18 5.08 140.14 5.19 C 133.40 5.07 126.66 5.13 119.93 5.18 C 117.17 5.08 114.44 6.70 113.21 9.17 Z" />
<path d=" M 121.20 70.28 C 135.02 68.43 149.53 71.06 161.43 78.45 C 175.89 87.24 186.53 102.31 189.24 119.09 C 191.01 126.95 190.38 135.19 188.89 143.06 C 185.08 161.08 172.41 176.96 155.65 184.62 C 142.21 191.05 126.34 191.98 112.13 187.64 C 93.59 182.08 78.19 166.97 72.58 148.41 C 71.36 144.57 68.86 141.12 68.72 136.97 C 68.65 131.56 68.15 125.96 70.38 120.87 C 72.66 105.15 81.48 90.59 94.33 81.27 C 102.17 75.40 111.57 71.81 121.20 70.28 M 119.51 75.75 C 93.99 80.32 73.58 104.96 74.70 131.00 C 74.41 159.65 100.33 185.52 128.99 185.11 C 158.24 186.52 186.13 160.58 185.53 131.04 C 185.91 111.08 174.37 91.57 157.01 81.85 C 145.80 75.29 132.21 73.46 119.51 75.75 Z" />
<path d=" M 248.27 122.29 C 248.86 122.74 248.86 122.74 248.27 122.29 Z" />
</svg>
