<?xml version="1.0" encoding="UTF-8" ?>
<!DOCTYPE svg PUBLIC "-//W3C//DTD SVG 1.1//EN" "http://www.w3.org/Graphics/SVG/1.1/DTD/svg11.dtd">
<svg width="314pt" height="314pt" viewBox="0 0 314 314" version="1.1" xmlns="http://www.w3.org/2000/svg">
<g id="#ffffffff">
</g>
<g id="#011627ff">
<path fill="#011627" opacity="1.00" d=" M 151.02 4.21 C 152.26 3.05 153.38 1.62 155.05 1.06 C 162.04 0.40 169.03 1.30 175.99 2.00 C 205.61 5.54 234.13 17.88 256.99 37.07 C 283.27 58.90 302.11 89.55 309.44 122.95 C 319.14 165.28 309.96 211.46 284.82 246.88 C 267.37 271.68 242.64 291.31 214.40 302.41 C 196.18 309.58 176.58 313.39 157.00 313.40 C 151.78 313.57 148.42 306.75 151.72 302.71 C 154.63 298.90 159.87 300.26 163.99 299.97 C 192.99 298.65 221.49 288.13 244.41 270.30 C 278.55 244.22 299.86 202.04 299.99 159.02 C 300.75 123.21 287.10 87.37 262.86 61.01 C 246.74 43.15 225.97 29.52 203.20 21.75 C 188.02 16.48 171.93 14.17 155.91 13.97 C 151.43 13.33 149.30 8.15 151.02 4.21 Z" />
<path fill="#011627" opacity="1.00" d=" M 87.24 17.30 C 91.47 15.59 96.28 19.73 96.01 24.07 C 95.61 26.19 94.47 28.34 92.46 29.32 C 81.72 34.85 71.55 41.58 62.58 49.70 C 60.63 51.24 58.78 53.53 56.02 53.25 C 51.58 53.73 47.95 48.52 49.68 44.50 C 50.12 42.87 51.57 41.85 52.69 40.70 C 63.13 31.47 74.73 23.48 87.24 17.30 Z" />
<path fill="#011627" opacity="1.00" d=" M 36.36 59.53 C 41.87 57.14 47.85 64.96 43.76 69.60 C 32.30 84.55 23.72 101.70 18.85 119.91 C 17.60 124.63 10.78 125.91 7.68 122.28 C 6.26 120.63 5.49 118.32 6.20 116.20 C 11.51 96.85 20.44 78.45 32.64 62.50 C 33.59 61.21 34.80 60.05 36.36 59.53 Z" />
<path fill="#011627" opacity="1.00" d=" M 111.90 96.72 C 127.22 92.29 144.41 95.61 157.05 105.33 C 165.89 98.72 176.84 94.62 187.96 94.88 C 201.88 94.54 215.74 100.59 225.26 110.71 C 233.89 119.91 238.74 132.38 239.02 144.96 C 239.00 157.88 234.11 170.75 225.24 180.19 C 204.21 201.21 183.20 222.24 162.17 243.26 C 159.53 246.25 154.45 246.22 151.83 243.22 C 131.30 222.70 110.79 202.16 90.26 181.65 C 84.45 175.68 79.84 168.46 77.47 160.44 C 73.15 146.86 75.04 131.58 82.33 119.36 C 88.78 108.36 99.64 100.14 111.90 96.72 M 97.73 120.76 C 85.19 134.34 85.40 157.37 98.21 170.71 C 117.79 190.37 137.45 209.94 157.04 229.59 C 176.22 210.26 195.54 191.05 214.78 171.78 C 223.60 163.19 227.44 149.92 224.86 137.93 C 221.82 121.55 206.62 108.57 189.98 108.04 C 179.61 107.51 169.16 111.54 161.78 118.83 C 159.31 121.65 154.68 121.62 152.21 118.80 C 145.08 111.73 135.02 107.74 124.98 108.02 C 114.65 108.22 104.48 112.90 97.73 120.76 Z" />
<path fill="#011627" opacity="1.00" d=" M 1.29 144.92 C 1.25 141.29 4.22 137.53 8.06 137.88 C 11.40 137.66 14.55 140.77 14.53 144.10 C 12.58 167.62 16.24 191.67 25.63 213.36 C 26.61 215.38 26.36 217.65 25.99 219.79 C 23.56 224.19 16.32 224.69 14.10 219.86 C 3.70 196.46 -0.67 170.42 1.29 144.92 Z" />
<path fill="#011627" opacity="1.00" d=" M 29.62 233.69 C 33.08 231.69 36.97 234.30 38.67 237.38 C 60.06 269.32 94.95 291.62 132.80 298.11 C 133.91 299.10 134.96 300.16 135.98 301.24 C 137.46 305.60 134.83 310.59 130.02 310.87 C 88.05 303.73 49.54 278.45 26.40 242.70 C 24.84 239.53 26.07 234.93 29.62 233.69 Z" />
</g>
</svg>
