<svg width="667pt" height="667pt" viewBox="0 0 667 667" version="1.1" xmlns="http://www.w3.org/2000/svg">
<path d=" M 451.28 40.25 C 456.38 37.11 462.96 36.18 468.58 38.44 C 475.90 40.95 481.19 48.33 481.32 56.06 C 481.69 62.24 478.46 67.95 474.21 72.21 C 433.35 112.97 392.66 153.88 351.74 194.57 C 407.83 194.48 463.92 194.54 520.00 194.54 C 534.95 194.36 549.92 199.95 560.87 210.16 C 573.04 221.23 580.12 237.55 579.98 253.99 C 580.02 332.35 580.00 410.71 579.99 489.08 C 580.22 505.31 573.48 521.49 561.66 532.63 C 550.66 543.29 535.36 549.19 520.07 548.99 C 389.37 549.01 258.67 549.01 127.98 548.99 C 112.67 549.20 97.36 543.30 86.35 532.63 C 74.50 521.47 67.75 505.25 68.01 488.99 C 68.00 410.64 67.98 332.30 68.02 253.95 C 67.89 237.51 74.98 221.20 87.15 210.15 C 98.10 199.94 113.06 194.36 128.00 194.54 C 184.08 194.54 240.17 194.49 296.26 194.57 C 275.36 173.88 254.68 152.97 233.83 132.23 C 230.87 129.28 227.91 126.03 226.78 121.90 C 223.47 112.88 228.24 101.88 237.07 98.11 C 244.53 94.38 253.81 96.57 259.59 102.34 C 281.13 123.71 302.51 145.26 324.00 166.68 C 363.29 127.41 402.56 88.11 441.85 48.84 C 444.87 45.85 447.72 42.62 451.28 40.25 M 223.27 234.33 C 201.41 235.06 179.26 235.74 158.04 241.57 C 149.40 244.37 140.74 247.76 133.81 253.80 C 124.67 261.52 118.61 272.43 115.54 283.90 C 109.45 303.99 108.61 325.19 107.74 346.03 C 107.21 369.37 107.24 392.74 108.58 416.06 C 109.97 434.04 111.92 452.34 118.85 469.15 C 123.14 479.05 130.03 487.99 139.24 493.75 C 144.47 497.29 150.50 499.28 156.38 501.45 C 172.77 506.40 189.95 507.66 206.96 508.65 C 231.30 509.65 255.67 509.44 280.04 509.60 C 312.40 509.19 344.98 510.33 377.09 505.43 C 388.53 503.29 400.09 500.30 410.07 494.12 C 422.56 486.36 430.65 473.00 434.21 458.96 C 436.75 451.23 437.85 443.15 439.16 435.16 C 442.48 406.56 442.29 377.71 441.89 348.97 C 441.27 329.49 440.44 309.89 436.22 290.80 C 433.92 282.07 431.47 273.21 426.48 265.56 C 420.55 255.87 411.25 248.31 400.59 244.41 C 382.01 237.01 361.75 235.89 342.00 234.79 C 302.44 233.56 262.85 233.97 223.27 234.33 M 504.40 292.50 C 493.95 294.77 484.99 302.82 481.83 313.06 C 477.26 326.43 483.35 342.37 495.73 349.21 C 508.07 356.56 525.36 353.66 534.47 342.50 C 542.14 333.75 543.94 320.53 539.16 309.97 C 533.59 296.90 518.23 289.18 504.40 292.50 M 504.30 371.30 C 489.34 374.33 478.38 389.78 480.57 404.92 C 481.95 420.34 496.59 432.88 512.03 432.04 C 526.42 431.89 539.58 420.29 541.45 406.00 C 543.27 394.96 538.47 383.21 529.43 376.61 C 522.36 371.27 512.93 369.38 504.30 371.30 Z" />
</svg>
